# This file uses centimeters as units for non-parametric coordinates.

mtllib flower1.mtl
g default
v 1.282574 0.417182 0.309439
v 0.323937 0.417182 -1.133134
v -0.024580 -0.688594 0.024774
v 1.218949 0.834364 -0.688090
v -0.034808 -0.455707 -0.469790
v 0.451027 -0.455586 0.269359
v 0.828097 0.019914 -0.438642
v 1.127180 0.000000 0.573562
v 1.434178 0.722580 -0.230782
v 0.989404 0.417182 -0.535550
v 0.522753 -0.357506 -0.005093
v 1.114291 0.208591 -0.098637
v 0.880708 0.722580 -1.063652
v 0.020241 -0.000000 -1.092177
v 0.233422 -0.357506 -0.440482
v 0.634973 0.208591 -0.819923
v -0.033045 -0.626657 -0.305901
v 0.298149 -0.626657 0.187380
v 0.308808 -0.483417 -0.176748
v -0.408685 0.417182 -1.132703
v -1.336072 0.417182 0.330155
v -1.293918 0.834364 -0.668511
v -0.490307 -0.455590 0.272253
v -0.896610 0.019914 -0.428181
v -0.104179 0.000000 -1.098288
v -0.963834 0.722580 -1.051261
v -1.061146 0.417182 -0.520944
v -0.301131 -0.357506 -0.439229
v -0.712912 0.208591 -0.812874
v -1.499261 0.722580 -0.206680
v -1.175033 -0.000000 0.590875
v -0.581030 -0.357506 0.002283
v -1.176606 0.208591 -0.081445
v -0.339325 -0.626657 0.189191
v -0.370826 -0.483417 -0.173935
v -0.866025 0.417182 0.965648
v 0.866025 0.417182 0.965648
v 0.000000 0.834364 1.464759
v 0.002944 0.019914 0.969323
v -1.000000 0.000000 0.690041
v -0.500000 0.722580 1.390910
v 0.000000 0.417182 1.189152
v -0.272684 -0.357506 0.430628
v -0.433013 0.208591 1.051348
v 0.500000 0.722580 1.390910
v 1.000000 -0.000000 0.690041
v 0.250073 -0.357506 0.430628
v 0.433013 0.208591 1.051348
v -0.011305 -0.483417 0.347446
v 0.462267 -0.330636 0.023590
v 1.108966 0.015371 0.577814
v 1.096076 0.223900 -0.092036
v 1.261186 0.429231 0.312100
v 1.414904 0.735410 -0.223750
v 1.201790 0.847974 -0.676687
v 0.972852 0.431856 -0.524577
v 0.744847 0.016955 -0.373167
v 0.866760 0.735410 -1.048607
v 0.621704 0.223721 -0.805614
v 0.313199 0.429231 -1.114446
v 0.009233 0.015199 -1.076795
v 0.199119 -0.330795 -0.372189
v 0.265487 -0.448253 -0.131091
v -0.266639 -0.330766 -0.371345
v -0.092847 0.015219 -1.083173
v -0.699352 0.223739 -0.798861
v -0.397548 0.429231 -1.114251
v -0.949565 0.735410 -1.036520
v -1.276518 0.847974 -0.657480
v -1.044368 0.431866 -0.510334
v -0.813178 0.016984 -0.363870
v -1.479840 0.735410 -0.200064
v -1.158261 0.223911 -0.075243
v -1.314632 0.429231 0.332355
v -1.156748 0.015382 0.594738
v -0.521218 -0.330614 0.030020
v -0.327802 -0.448237 -0.128857
v -0.250874 -0.330335 0.400026
v -0.993605 0.015504 0.672649
v -0.428418 0.224021 1.032626
v -0.856404 0.429231 0.946362
v -0.495189 0.735410 1.370966
v 0.000000 0.847974 1.444157
v -0.000005 0.432016 1.169412
v -0.000025 0.017407 0.896031
v 0.495189 0.735410 1.370966
v 0.428417 0.224056 1.032656
v 0.856404 0.429231 0.946362
v 0.993636 0.015532 0.672677
v 0.224667 -0.330306 0.400049
v -0.013121 -0.448018 0.321643
vt 0.066987 0.250000
vt 0.933013 0.250000
vt 0.500000 1.000000
vt 0.500000 0.000000
vt 0.933013 0.750000
vt 0.066987 0.750000
vt 0.500000 0.500000
vt 0.000000 0.500000
vt 0.250000 0.066987
vt 0.500000 0.250000
vt 0.283494 0.625000
vt 0.283494 0.375000
vt 0.750000 0.066987
vt 1.000000 0.500000
vt 0.716506 0.625000
vt 0.716506 0.375000
vt 0.750000 0.933013
vt 0.250000 0.933013
vt 0.500000 0.750000
vt 0.283494 0.625000
vt 0.066987 0.750000
vt 0.000000 0.500000
vt 0.283494 0.375000
vt 0.066987 0.250000
vt 0.250000 0.066987
vt 0.500000 0.000000
vt 0.500000 0.250000
vt 0.500000 0.500000
vt 0.750000 0.066987
vt 0.716506 0.375000
vt 0.933013 0.250000
vt 1.000000 0.500000
vt 0.933013 0.750000
vt 0.716506 0.625000
vt 0.750000 0.933013
vt 0.500000 0.750000
vt 0.500000 1.000000
vt 0.250000 0.933013
vt 0.283494 0.625000
vt 0.066987 0.750000
vt 0.000000 0.500000
vt 0.283494 0.375000
vt 0.066987 0.250000
vt 0.250000 0.066987
vt 0.500000 0.000000
vt 0.500000 0.250000
vt 0.500000 0.500000
vt 0.750000 0.066987
vt 0.716506 0.375000
vt 0.933013 0.250000
vt 1.000000 0.500000
vt 0.933013 0.750000
vt 0.716506 0.625000
vt 0.750000 0.933013
vt 0.500000 0.750000
vt 0.500000 1.000000
vt 0.250000 0.933013
vt 0.283494 0.625000
vt 0.066987 0.750000
vt 0.000000 0.500000
vt 0.283494 0.375000
vt 0.066987 0.250000
vt 0.250000 0.066987
vt 0.500000 0.000000
vt 0.500000 0.250000
vt 0.500000 0.500000
vt 0.750000 0.066987
vt 0.716506 0.375000
vt 0.933013 0.250000
vt 1.000000 0.500000
vt 0.933013 0.750000
vt 0.716506 0.625000
vt 0.750000 0.933013
vt 0.500000 0.750000
vt 0.500000 1.000000
vt 0.250000 0.933013
vt 0.283494 0.625000
vt 0.066987 0.750000
vt 0.000000 0.500000
vt 0.283494 0.375000
vt 0.066987 0.250000
vt 0.250000 0.066987
vt 0.500000 0.000000
vt 0.500000 0.250000
vt 0.500000 0.500000
vt 0.750000 0.066987
vt 0.716506 0.375000
vt 0.933013 0.250000
vt 1.000000 0.500000
vt 0.933013 0.750000
vt 0.716506 0.625000
vt 0.750000 0.933013
vt 0.500000 0.750000
vt 0.500000 1.000000
vt 0.250000 0.933013
vt 0.283494 0.625000
vt 0.066987 0.750000
vt 0.000000 0.500000
vt 0.283494 0.375000
vt 0.066987 0.250000
vt 0.250000 0.066987
vt 0.500000 0.000000
vt 0.500000 0.250000
vt 0.500000 0.500000
vt 0.750000 0.066987
vt 0.716506 0.375000
vt 0.933013 0.250000
vt 1.000000 0.500000
vt 0.933013 0.750000
vt 0.716506 0.625000
vt 0.750000 0.933013
vt 0.500000 0.750000
vt 0.500000 1.000000
vt 0.250000 0.933013
vt 0.000000 0.500000
vt 0.066987 0.250000
vt 0.250000 0.066987
vt 0.500000 0.000000
vt 0.750000 0.066987
vt 0.933013 0.250000
vt 1.000000 0.500000
vt 0.000000 0.500000
vt 0.066987 0.250000
vt 0.250000 0.066987
vt 0.500000 0.000000
vt 0.750000 0.066987
vt 0.933013 0.250000
vt 1.000000 0.500000
vt 0.000000 0.500000
vt 0.066987 0.250000
vt 0.250000 0.066987
vt 0.500000 0.000000
vt 0.750000 0.066987
vt 0.933013 0.250000
vt 1.000000 0.500000
vn -0.623909 0.719886 0.304139
vn -0.641976 0.712787 0.282492
vn -0.697636 0.678833 0.229109
vn -0.730283 0.626400 0.272598
vn -0.866827 0.487063 0.106678
vn -0.761396 0.540706 0.357650
vn -0.694790 0.551436 0.461720
vn -0.670283 0.593572 0.445412
vn -0.609358 0.683256 0.402298
vn -0.624618 0.540750 0.563419
vn -0.541047 0.615675 0.572898
vn -0.434069 0.487169 0.757793
vn -0.485375 0.666037 0.566398
vn -0.518772 0.696588 0.495622
vn -0.528719 0.708063 0.468085
vn -0.553140 0.714815 0.427873
vn -0.566584 0.733450 0.375546
vn -0.490999 0.806376 0.329662
vn -0.609495 0.715142 0.342181
vn 0.536125 0.710758 0.455404
vn 0.526653 0.699452 0.483119
vn 0.495967 0.668367 0.554349
vn 0.552305 0.616900 0.560708
vn 0.450273 0.487158 0.748286
vn 0.636595 0.540745 0.549856
vn 0.704561 0.551434 0.446670
vn 0.679430 0.594020 0.430715
vn 0.616899 0.684434 0.388568
vn 0.768915 0.540703 0.341190
vn 0.734703 0.628727 0.254782
vn 0.868925 0.487056 0.088010
vn 0.698875 0.683911 0.209379
vn 0.643862 0.719865 0.259299
vn 0.626372 0.726242 0.283250
vn 0.607709 0.731527 0.309124
vn 0.572019 0.738982 0.355948
vn 0.492171 0.815514 0.304473
vn 0.556168 0.724304 0.407505
vn 0.076243 0.722873 -0.686762
vn 0.095169 0.711120 -0.696600
vn 0.175086 0.685093 -0.707101
vn 0.173407 0.629558 -0.757355
vn 0.390921 0.486977 -0.781047
vn 0.123555 0.540662 -0.832117
vn 0.000002 0.551403 -0.834239
vn -0.000003 0.600743 -0.799442
vn -0.000469 0.701640 -0.712532
vn -0.123553 0.540653 -0.832123
vn -0.173513 0.631881 -0.755394
vn -0.390926 0.486956 -0.781058
vn -0.175513 0.687805 -0.704358
vn -0.096229 0.715594 -0.691857
vn -0.076842 0.726804 -0.682533
vn -0.043879 0.676955 -0.734715
vn -0.001367 0.731165 -0.682200
vn -0.001788 0.776953 -0.629556
vn 0.039455 0.672557 -0.738993
vn 0.633212 -0.734199 -0.244938
vn 0.750640 -0.616143 -0.238554
vn 0.705670 -0.685513 -0.179171
vn 0.645694 -0.737682 -0.197244
vn 0.762251 -0.540572 -0.356026
vn 0.866182 -0.487971 -0.107767
vn 0.681769 -0.575404 -0.451776
vn 0.694916 -0.551215 -0.461795
vn 0.640679 -0.641154 -0.422435
vn 0.521308 -0.593527 -0.613159
vn 0.623486 -0.540572 -0.564842
vn 0.439301 -0.663659 -0.605452
vn 0.434864 -0.487971 -0.756821
vn 0.473356 -0.718221 -0.509993
vn 0.432733 -0.718084 -0.545066
vn 0.515368 -0.785623 -0.342333
vn 0.411188 -0.817503 -0.403254
vn 0.540032 -0.811308 -0.223932
vn 0.387232 -0.884565 -0.259992
vn -0.481974 -0.721020 -0.497827
vn -0.533486 -0.595017 -0.601122
vn -0.450912 -0.666179 -0.594040
vn -0.441593 -0.721095 -0.533870
vn -0.635491 -0.540572 -0.551301
vn -0.451042 -0.487970 -0.747292
vn -0.690984 -0.576116 -0.436614
vn -0.704688 -0.551215 -0.446741
vn -0.648118 -0.643077 -0.407916
vn -0.753911 -0.618783 -0.220737
vn -0.769733 -0.540572 -0.339548
vn -0.705336 -0.690621 -0.159825
vn -0.868299 -0.487971 -0.089112
vn -0.634143 -0.739718 -0.225122
vn -0.644519 -0.744517 -0.174039
vn -0.521057 -0.789092 -0.325322
vn -0.535709 -0.821133 -0.196867
vn -0.415193 -0.823825 -0.385912
vn -0.388907 -0.889307 -0.240591
vn -0.108588 -0.736680 0.667466
vn -0.196566 -0.623282 0.756889
vn -0.205709 -0.690872 0.693094
vn -0.140379 -0.730346 0.668498
vn -0.125360 -0.540572 0.831905
vn -0.389649 -0.487970 0.781062
vn -0.000311 -0.592647 0.805462
vn 0.000000 -0.551215 0.834363
vn 0.000836 -0.684641 0.728880
vn 0.197422 -0.625784 0.754598
vn 0.125360 -0.540572 0.831905
vn 0.206392 -0.694001 0.689757
vn 0.389649 -0.487971 0.781062
vn 0.109169 -0.741285 0.662253
vn 0.141945 -0.735534 0.662451
vn 0.001423 -0.772325 0.635226
vn 0.087248 -0.751363 0.654096
vn -0.083046 -0.745227 0.661620
vn 0.001524 -0.843878 0.536533
vn -0.132435 -0.406935 0.903806
vn -0.132435 -0.406936 0.903806
vn -0.132435 -0.406935 0.903806
vn 0.407422 0.378943 0.830909
vn 0.487128 0.548212 0.679831
vn 0.487710 0.549573 0.678313
vn 0.407422 0.378943 0.830909
vn 0.531337 0.662886 0.527506
vn 0.531337 0.662886 0.527506
vn 0.565062 0.822628 -0.063154
vn 0.565062 0.822628 -0.063154
vn 0.565062 0.822628 -0.063154
vn 0.565062 0.822628 -0.063154
vn 0.277096 0.822627 -0.496491
vn 0.277096 0.822627 -0.496491
vn 0.277096 0.822627 -0.496491
vn 0.277096 0.822627 -0.496491
vn -0.280520 0.662885 -0.694184
vn -0.439441 0.548924 -0.711037
vn -0.437818 0.550265 -0.711002
vn -0.280520 0.662885 -0.694184
vn -0.610680 0.380775 -0.694320
vn -0.610680 0.380775 -0.694320
vn -0.891151 -0.324886 -0.316701
vn -0.891151 -0.324886 -0.316701
vn -0.891151 -0.324886 -0.316701
vn 0.884171 -0.326382 -0.334241
vn 0.884171 -0.326382 -0.334241
vn 0.884171 -0.326382 -0.334241
vn 0.595324 0.380568 -0.707642
vn 0.423889 0.548842 -0.720480
vn 0.422267 0.550185 -0.720407
vn 0.595324 0.380568 -0.707642
vn 0.265521 0.662884 -0.700060
vn 0.265521 0.662884 -0.700060
vn -0.287712 0.822627 -0.490414
vn -0.287712 0.822628 -0.490414
vn -0.287712 0.822628 -0.490414
vn -0.287712 0.822628 -0.490414
vn -0.566293 0.822625 -0.050986
vn -0.566293 0.822625 -0.050986
vn -0.566293 0.822625 -0.050986
vn -0.566293 0.822625 -0.050986
vn -0.519867 0.662887 0.538813
vn -0.472511 0.548167 0.690106
vn -0.473124 0.549529 0.688601
vn -0.519867 0.662887 0.538813
vn -0.389707 0.378824 0.839417
vn -0.389707 0.378824 0.839417
vn 0.150170 -0.405041 0.901882
vn 0.150170 -0.405041 0.901882
vn 0.150170 -0.405041 0.901882
vn -0.756149 -0.325170 -0.567894
vn -0.756149 -0.325170 -0.567894
vn -0.756149 -0.325170 -0.567894
vn -0.918531 0.377475 -0.117535
vn -0.836135 0.547649 0.030974
vn -0.835181 0.549026 0.032292
vn -0.918531 0.377475 -0.117535
vn -0.733425 0.662883 0.150577
vn -0.733425 0.662883 0.150577
vn -0.260146 0.822627 0.505578
vn -0.260146 0.822627 0.505578
vn -0.260146 0.822627 0.505578
vn -0.260146 0.822627 0.505578
vn 0.260146 0.822627 0.505577
vn 0.260146 0.822627 0.505577
vn 0.260146 0.822627 0.505577
vn 0.260146 0.822627 0.505577
vn 0.733426 0.662883 0.150577
vn 0.836201 0.547529 0.031302
vn 0.835245 0.548910 0.032619
vn 0.733426 0.662883 0.150577
vn 0.918743 0.377159 -0.116886
vn 0.918743 0.377159 -0.116886
vn 0.735031 -0.348827 -0.581420
vn 0.735031 -0.348827 -0.581420
vn 0.735031 -0.348827 -0.581420
s 1
g pDisc4
usemtl initialShadingGroup
f 50/11/1 6/6/2 51/115/3 52/12/4
f 51/115/3 53/116/5 54/117/6 52/12/4
f 54/117/6 55/118/7 56/10/8 52/12/4
f 56/10/8 57/7/9 50/11/1 52/12/4
f 56/10/8 55/118/7 58/119/10 59/16/11
f 58/119/10 60/120/12 61/121/13 59/16/11
f 61/121/13 5/5/14 62/15/15 59/16/11
f 62/15/15 57/7/9 56/10/8 59/16/11
f 62/15/15 5/5/14 17/17/16 63/19/17
f 17/17/16 3/3/18 18/18/19 63/19/17
f 18/18/19 6/6/2 50/11/1 63/19/17
f 50/11/1 57/7/9 62/15/15 63/19/17
s 2
f 64/20/20 5/21/21 65/122/22 66/23/23
f 65/122/22 67/123/24 68/124/25 66/23/23
f 68/124/25 69/125/26 70/27/27 66/23/23
f 70/27/27 71/28/28 64/20/20 66/23/23
f 70/27/27 69/125/26 72/126/29 73/30/30
f 72/126/29 74/127/31 75/128/32 73/30/30
f 75/128/32 23/33/33 76/34/34 73/30/30
f 76/34/34 71/28/28 70/27/27 73/30/30
f 76/34/34 23/33/33 34/35/35 77/36/36
f 34/35/35 3/37/37 17/38/38 77/36/36
f 17/38/38 5/21/21 64/20/20 77/36/36
f 64/20/20 71/28/28 76/34/34 77/36/36
s 3
f 78/39/39 23/40/40 79/129/41 80/42/42
f 79/129/41 81/130/43 82/131/44 80/42/42
f 82/131/44 83/132/45 84/46/46 80/42/42
f 84/46/46 85/47/47 78/39/39 80/42/42
f 84/46/46 83/132/45 86/133/48 87/49/49
f 86/133/48 88/134/50 89/135/51 87/49/49
f 89/135/51 6/52/52 90/53/53 87/49/49
f 90/53/53 85/47/47 84/46/46 87/49/49
f 90/53/53 6/52/52 18/54/54 91/55/55
f 18/54/54 3/56/56 34/57/57 91/55/55
f 34/57/57 23/40/40 78/39/39 91/55/55
f 78/39/39 85/47/47 90/53/53 91/55/55
s 4
f 11/58/58 12/61/59 8/60/60 6/59/61
f 8/60/60 12/61/59 9/63/62 1/62/63
f 9/63/62 12/61/59 10/65/64 4/64/65
f 10/65/64 12/61/59 11/58/58 7/66/66
f 10/65/64 16/68/67 13/67/68 4/64/65
f 13/67/68 16/68/67 14/70/69 2/69/70
f 14/70/69 16/68/67 15/72/71 5/71/72
f 15/72/71 16/68/67 10/65/64 7/66/66
f 15/72/71 19/74/73 17/73/74 5/71/72
f 17/73/74 19/74/73 18/76/75 3/75/76
f 18/76/75 19/74/73 11/58/58 6/59/61
f 11/58/58 19/74/73 15/72/71 7/66/66
s 5
f 28/77/77 29/80/78 25/79/79 5/78/80
f 25/79/79 29/80/78 26/82/81 20/81/82
f 26/82/81 29/80/78 27/84/83 22/83/84
f 27/84/83 29/80/78 28/77/77 24/85/85
f 27/84/83 33/87/86 30/86/87 22/83/84
f 30/86/87 33/87/86 31/89/88 21/88/89
f 31/89/88 33/87/86 32/91/90 23/90/91
f 32/91/90 33/87/86 27/84/83 24/85/85
f 32/91/90 35/93/92 34/92/93 23/90/91
f 34/92/93 35/93/92 17/95/94 3/94/95
f 17/95/94 35/93/92 28/77/77 5/78/80
f 28/77/77 35/93/92 32/91/90 24/85/85
s 6
f 43/96/96 44/99/97 40/98/98 23/97/99
f 40/98/98 44/99/97 41/101/100 36/100/101
f 41/101/100 44/99/97 42/103/102 38/102/103
f 42/103/102 44/99/97 43/96/96 39/104/104
f 42/103/102 48/106/105 45/105/106 38/102/103
f 45/105/106 48/106/105 46/108/107 37/107/108
f 46/108/107 48/106/105 47/110/109 6/109/110
f 47/110/109 48/106/105 42/103/102 39/104/104
f 47/110/109 49/112/111 18/111/112 6/109/110
f 18/111/112 49/112/111 34/114/113 3/113/114
f 34/114/113 49/112/111 43/96/96 23/97/99
f 43/96/96 49/112/111 47/110/109 39/104/104
s off
f 6/6/115 8/8/116 51/115/117
s 7
f 8/8/118 1/1/119 53/116/120 51/115/121
f 1/1/119 9/9/122 54/117/123 53/116/120
s off
f 9/9/124 4/4/125 55/118/126 54/117/127
f 4/4/128 13/13/129 58/119/130 55/118/131
s 8
f 13/13/132 2/2/133 60/120/134 58/119/135
f 2/2/133 14/14/136 61/121/137 60/120/134
s off
f 14/14/138 5/5/139 61/121/140
f 5/21/141 25/22/142 65/122/143
s 9
f 25/22/144 20/24/145 67/123/146 65/122/147
f 20/24/145 26/25/148 68/124/149 67/123/146
s off
f 26/25/150 22/26/151 69/125/152 68/124/153
f 22/26/154 30/29/155 72/126/156 69/125/157
s 10
f 30/29/158 21/31/159 74/127/160 72/126/161
f 21/31/159 31/32/162 75/128/163 74/127/160
s off
f 31/32/164 23/33/165 75/128/166
f 23/40/167 40/41/168 79/129/169
s 11
f 40/41/170 36/43/171 81/130/172 79/129/173
f 36/43/171 41/44/174 82/131/175 81/130/172
s off
f 41/44/176 38/45/177 83/132/178 82/131/179
f 38/45/180 45/48/181 86/133/182 83/132/183
s 12
f 45/48/184 37/50/185 88/134/186 86/133/187
f 37/50/185 46/51/188 89/135/189 88/134/186
s off
f 46/51/190 6/52/191 89/135/192
