# This file uses centimeters as units for non-parametric coordinates.

mtllib flower2.mtl
g default
v -0.098181 -1.504132 0.098181
v -0.164123 1.504132 0.164123
v -0.280597 1.504132 -0.280597
v 0.164123 1.504132 -0.164123
v -0.167857 -1.504132 -0.167857
v 0.098181 -1.504132 -0.098181
v -0.064036 3.973678 0.073852
v 0.028398 3.992547 -0.350387
v -0.393140 4.041728 -0.178169
vt 0.375000 0.250000
vt 0.375000 0.000000
vt 0.875000 0.000000
vt 0.875000 0.250000
vt 0.375000 0.500000
vt 0.625000 0.500000
vt 0.625000 0.750000
vt 0.375000 0.750000
vt 0.375000 1.000000
vt 0.125000 0.000000
vt 0.125000 0.250000
vt 0.500000 0.125000
vt 0.375000 0.250000
vt 0.687500 0.437500
vn 0.794717 0.016414 0.606758
vn 0.707107 0.000000 0.707107
vn 0.707107 0.000000 0.707107
vn 0.796568 0.016789 0.604315
vn 0.092449 -0.023554 -0.995439
vn 0.099439 -0.023705 -0.994761
vn 0.253268 -0.026749 -0.967026
vn 0.253268 -0.026749 -0.967026
vn 0.000000 -1.000000 -0.000001
vn 0.000000 -1.000000 -0.000001
vn 0.000000 -1.000000 -0.000001
vn -0.967026 -0.026749 0.253268
vn -0.967026 -0.026749 0.253268
vn -0.918277 -0.015686 0.395628
vn -0.917724 -0.015582 0.396912
vn 0.794717 0.016414 0.606758
vn 0.796568 0.016789 0.604315
vn 0.872010 0.033506 0.488340
vn 0.872010 0.033506 0.488340
vn 0.099439 -0.023705 -0.994761
vn 0.092449 -0.023554 -0.995439
vn -0.065329 -0.019869 -0.997666
vn -0.065329 -0.019869 -0.997666
vn -0.917724 -0.015582 0.396912
vn -0.918277 -0.015686 0.395628
vn -0.842602 -0.003404 0.538525
vn -0.842602 -0.003404 0.538525
s off
g flower3:pCube9
usemtl initialShadingGroup
f 2/1/1 1/2/2 6/3/3 4/4/4
f 3/5/5 4/6/6 6/7/7 5/8/8
f 5/8/9 6/7/10 1/9/11
f 5/10/12 1/2/13 2/1/14 3/11/15
f 2/1/16 4/6/17 8/14/18 7/12/19
f 4/6/20 3/5/21 9/13/22 8/14/23
f 3/5/24 2/1/25 7/12/26 9/13/27
g default
v 0.082877 4.179781 0.358121
v 0.130175 5.179781 0.994514
v -1.089614 5.179781 -0.225276
v 0.526403 5.179781 -0.801647
v -0.633365 4.179781 -0.358121
v 0.224756 4.179781 -0.500000
v 0.056961 6.229443 0.319401
v 0.186036 6.229443 -0.461279
v -0.594644 6.229443 -0.332204
vt 0.625000 0.000000
vt 0.625000 0.250000
vt 0.375000 0.500000
vt 0.625000 0.500000
vt 0.375000 0.750000
vt 0.625000 0.750000
vt 0.625000 1.000000
vt 0.875000 0.000000
vt 0.875000 0.250000
vt 0.125000 0.000000
vt 0.125000 0.250000
vt 0.625000 0.250000
vt 0.625000 0.500000
vt 0.375000 0.500000
vn 0.000000 1.000000 0.000000
vn 0.000000 1.000000 0.000000
vn 0.000000 1.000000 0.000000
vn -0.280568 0.013315 -0.959742
vn -0.280556 0.012310 -0.959759
vn -0.277337 -0.102070 -0.955336
vn -0.277337 -0.102070 -0.955336
vn 0.000000 -1.000000 0.000000
vn 0.000000 -1.000000 0.000000
vn 0.000000 -1.000000 0.000000
vn 0.960238 -0.200117 0.194671
vn 0.960238 -0.200118 0.194671
vn 0.979902 0.010441 0.199208
vn 0.979878 0.012433 0.199209
vn -0.707095 -0.005670 0.707095
vn -0.707089 -0.007076 0.707089
vn -0.652740 -0.384526 0.652740
vn -0.652740 -0.384526 0.652740
vn 0.955972 0.219408 0.194880
vn 0.955972 0.219408 0.194880
vn -0.280097 0.126444 -0.951608
vn -0.280097 0.126444 -0.951608
vn -0.655289 0.375757 0.655289
vn -0.655289 0.375757 0.655289
s off
g pCube1
usemtl initialShadingGroup
f 16/26/28 17/27/29 18/28/30
s 1
f 12/17/31 13/18/32 15/20/33 14/19/34
s off
f 14/19/35 15/20/36 10/21/37
s 2
f 10/15/38 15/22/39 13/23/40 11/16/41
s 3
f 11/16/42 12/25/43 14/24/44 10/15/45
s 2
f 11/16/41 13/18/40 17/27/46 16/26/47
s 1
f 13/18/32 12/17/31 18/28/48 17/27/49
s 3
f 12/17/43 11/16/42 16/26/50 18/28/51
