# This file uses centimeters as units for non-parametric coordinates.

mtllib kirikabu2.mtl
g default
v 0.707107 -0.019349 -0.707107
v 0.000000 -0.019349 -1.000000
v -0.707107 -0.019349 -0.707107
v -1.000000 -0.019349 0.000000
v -0.707107 -0.019349 0.707107
v 0.000000 -0.019349 1.000000
v 0.707107 -0.019349 0.707107
v 1.000000 -0.019349 0.000000
v 0.654425 1.000000 -0.654425
v 0.000000 1.000000 -0.925496
v -0.654425 1.000000 -0.654425
v -0.925496 1.000000 0.000000
v -0.654425 1.000000 0.654425
v 0.000000 1.000000 0.925496
v 0.654425 1.000000 0.654425
v 0.925496 1.000000 0.000000
v 0.801295 -1.439770 -0.801295
v -0.000000 -0.758904 -1.133202
v -0.801295 -1.439770 -0.801295
v -1.133202 -0.758904 -0.000000
v -0.801295 -1.439770 0.801295
v -0.000000 -0.758904 1.133202
v 0.801295 -1.439770 0.801295
v 1.133202 -0.758904 -0.000000
v -1.940145 -1.836913 0.000000
v 1.611850 -1.836913 -0.133549
v 0.000000 -1.836913 -1.817485
v 0.000000 -1.836913 1.982306
vt 0.735070 0.736430
vt 0.734637 0.888382
vt 0.103890 0.753993
vt 0.101895 0.915048
vt 0.217213 0.766739
vt 0.215970 0.931407
vt 0.341407 0.768227
vt 0.342307 0.933180
vt 0.457653 0.756565
vt 0.459642 0.918530
vt 0.558165 0.744021
vt 0.559745 0.900570
vt 0.648387 0.737021
vt 0.649014 0.889370
vt 0.106788 0.455009
vt 0.218963 0.563477
vt 0.454780 0.570490
vt 0.647444 0.584468
vt 0.223974 0.475774
vt 0.654942 0.476569
vt 0.445822 0.484598
vt 0.922229 0.753993
vt 0.920234 0.915048
vt 0.822740 0.897821
vt 0.824165 0.742249
vt 0.826286 0.580667
vt 0.832542 0.484598
vt 0.555821 0.467907
vt 0.735721 0.478583
vt 0.925127 0.455009
vt 0.340146 0.438626
vn 0.404942 0.092626 -0.909639
vn 0.405145 0.092850 -0.909525
vn 0.381814 0.067372 -0.921780
vn 0.381814 0.067372 -0.921780
vn -0.405145 0.092850 -0.909525
vn -0.404942 0.092626 -0.909639
vn -0.381814 0.067372 -0.921780
vn -0.381814 0.067372 -0.921780
vn -0.909639 0.092626 -0.404942
vn -0.909525 0.092850 -0.405145
vn -0.921780 0.067372 -0.381814
vn -0.921780 0.067372 -0.381814
vn -0.909525 0.092850 0.405145
vn -0.909639 0.092626 0.404942
vn -0.921780 0.067372 0.381814
vn -0.921780 0.067372 0.381814
vn -0.404942 0.092626 0.909639
vn -0.405145 0.092850 0.909525
vn -0.381814 0.067372 0.921780
vn -0.381814 0.067372 0.921780
vn 0.405145 0.092850 0.909525
vn 0.404942 0.092626 0.909639
vn 0.381814 0.067372 0.921780
vn 0.381814 0.067372 0.921780
vn 0.909639 0.092626 0.404942
vn 0.909525 0.092850 0.405145
vn 0.921780 0.067372 0.381814
vn 0.921780 0.067372 0.381814
vn 0.909525 0.092850 -0.405145
vn 0.909639 0.092626 -0.404942
vn 0.921780 0.067372 -0.381814
vn 0.921780 0.067372 -0.381814
vn 0.423371 0.113090 -0.898870
vn 0.423371 0.113090 -0.898870
vn -0.423371 0.113090 -0.898870
vn -0.423371 0.113090 -0.898870
vn -0.898870 0.113090 -0.423371
vn -0.898870 0.113090 -0.423371
vn -0.898870 0.113090 0.423371
vn -0.898870 0.113090 0.423371
vn -0.423371 0.113090 0.898870
vn -0.423371 0.113090 0.898870
vn 0.423371 0.113090 0.898870
vn 0.423371 0.113090 0.898870
vn 0.898870 0.113089 0.423371
vn 0.898870 0.113089 0.423371
vn 0.898870 0.113090 -0.423371
vn 0.898870 0.113090 -0.423371
vn -0.612751 0.458674 -0.643548
vn -0.612751 0.458674 -0.643548
vn -0.612751 0.458674 -0.643548
vn 0.781095 0.277520 0.559351
vn 0.781095 0.277520 0.559351
vn 0.781095 0.277520 0.559351
vn -0.612751 0.458674 0.643548
vn -0.612751 0.458674 0.643548
vn -0.612751 0.458674 0.643548
vn 0.691878 0.383024 -0.612044
vn 0.691878 0.383025 -0.612044
vn 0.691878 0.383024 -0.612044
vn 0.627105 0.417443 -0.657633
vn 0.627105 0.417443 -0.657633
vn 0.627105 0.417443 -0.657633
vn -0.627105 0.417443 -0.657633
vn -0.627105 0.417443 -0.657633
vn -0.627105 0.417443 -0.657633
vn -0.648164 0.471191 0.598217
vn -0.648164 0.471191 0.598217
vn -0.648164 0.471191 0.598216
vn 0.648164 0.471191 0.598216
vn 0.648164 0.471191 0.598216
vn 0.648164 0.471191 0.598216
vn 0.000000 -0.947844 -0.318735
vn 0.080596 -0.993383 -0.081816
vn -0.070123 -0.993355 -0.091258
vn 0.329276 -0.944234 0.000000
vn 0.084573 -0.993158 0.080530
vn 0.000000 -0.931397 0.364005
vn -0.087074 -0.992361 0.087397
vn -0.439989 -0.898003 0.000000
s 1
g pCylinder1
usemtl initialShadingGroup
f 1/1/1 2/25/2 10/24/3 9/2/4
s 2
f 2/25/5 3/22/6 11/23/7 10/24/8
s 3
f 3/3/9 4/5/10 12/6/11 11/4/12
s 4
f 4/5/13 5/7/14 13/8/15 12/6/16
s 5
f 5/7/17 6/9/18 14/10/19 13/8/20
s 6
f 6/9/21 7/11/22 15/12/23 14/10/24
s 7
f 7/11/25 8/13/26 16/14/27 15/12/28
s 8
f 8/13/29 1/1/30 9/2/31 16/14/32
s 1
f 2/25/2 1/1/1 17/29/33 18/26/34
s 2
f 3/22/6 2/25/5 18/26/35 19/30/36
s 3
f 4/5/10 3/3/9 19/15/37 20/16/38
s 4
f 5/7/14 4/5/13 20/16/39 21/31/40
s 5
f 6/9/18 5/7/17 21/31/41 22/17/42
s 6
f 7/11/22 6/9/21 22/17/43 23/28/44
s 7
f 8/13/26 7/11/25 23/28/45 24/18/46
s 8
f 1/1/30 8/13/29 24/18/47 17/29/48
s off
f 20/16/49 19/15/50 25/19/51
f 24/18/52 23/28/53 26/20/54
f 21/31/55 20/16/56 25/19/57
f 17/29/58 24/18/59 26/20/60
f 18/26/61 17/29/62 27/27/63
f 19/30/64 18/26/65 27/27/66
f 22/17/67 21/31/68 28/21/69
f 23/28/70 22/17/71 28/21/72
s 9
f 28/21/73 21/31/74 23/28/75
f 25/19/76 19/15/77 21/31/74
f 27/27/78 17/29/79 19/30/77
f 26/20/80 23/28/75 17/29/79
f 17/29/79 23/28/75 19/30/77
f 23/28/75 21/31/74 19/30/77
g default
v -0.652517 1.001017 0.652517
v 0.652517 1.001017 0.652517
v 0.652517 1.001017 -0.652517
v -0.652517 1.001017 -0.652517
v 0.000000 1.001017 0.922798
v 0.922798 1.001017 -0.000000
v -0.000000 1.001017 -0.922798
v -0.922798 1.001017 0.000000
v 0.000000 1.001017 -0.000000
vt 0.146447 0.146447
vt 0.853553 0.146447
vt 0.853553 0.853553
vt 0.146447 0.853553
vt 0.500000 0.000000
vt 1.000000 0.500000
vt 0.500000 1.000000
vt 0.000000 0.500000
vt 0.500000 0.500000
vn 0.000000 1.000000 0.000000
vn 0.000000 1.000000 -0.000000
vn 0.000000 1.000000 0.000000
vn 0.000000 1.000000 0.000000
vn 0.000000 1.000000 0.000000
vn 0.000000 1.000000 0.000000
vn 0.000000 1.000000 0.000000
vn 0.000000 1.000000 -0.000000
vn 0.000000 1.000000 -0.000000
s 1
g pDisc1
usemtl initialShadingGroup
f 36/39/81 29/32/82 37/40/83
f 37/40/83 29/32/82 33/36/84
f 33/36/84 30/33/85 37/40/83
f 37/40/83 30/33/85 34/37/86
f 34/37/86 31/34/87 37/40/83
f 37/40/83 31/34/87 35/38/88
f 35/38/88 32/35/89 37/40/83
f 37/40/83 32/35/89 36/39/81
