# This file uses centimeters as units for non-parametric coordinates.

mtllib plant1.mtl
g default
v 0.186739 -0.202869 -0.873821
v 0.326899 -0.173669 -1.238655
v 0.536340 0.067607 -0.537379
v 0.785605 0.119536 -1.186210
v 0.110458 0.349985 -0.873821
v 0.250618 0.379184 -1.238655
v -0.361959 -0.119536 -0.897461
v -0.112694 -0.067607 -1.546292
v 0.476528 0.051836 -2.237044
v -0.077922 0.094683 -0.058775
v -0.892200 -0.241806 -0.559804
v -1.204487 -0.306865 -1.022857
v -0.244874 0.176614 -0.762443
v -0.800255 0.060911 -1.585950
v -1.001641 0.283519 -0.559804
v -1.313928 0.218460 -1.022857
v -1.385010 -0.060911 0.039849
v -1.940391 -0.176614 -0.783658
v -1.880183 -0.127116 -2.208670
v -0.123529 -0.117233 0.120077
v 0.908498 -0.324580 0.000000
v 1.458973 -0.209899 0.000000
v 0.615896 -0.101976 0.565744
v 1.594877 0.101976 0.644217
v 0.767209 0.557202 0.000000
v 1.317684 0.671883 0.000000
v 0.615896 -0.101976 -0.569164
v 1.594877 0.101976 -0.646946
v 2.306049 0.211492 0.000000
v 0.044590 0.001450 0.000000
v 0.307757 -0.197823 1.526917
v 0.196709 -0.343832 0.995386
v 0.886614 0.231972 1.523640
v 0.781410 -0.027694 0.578351
v 0.217340 0.436199 1.599441
v 0.106292 0.504122 0.858271
v -0.378618 0.027694 1.863369
v -0.576109 -0.231972 0.918080
v -0.184490 -0.107737 -0.015113
v 0.416508 0.277179 2.247091
v -1.362930 -0.193717 0.814145
v -1.010834 -0.193717 0.654756
v -1.330751 0.000000 1.385172
v -0.643445 0.000000 1.074036
v -1.362930 0.175117 0.814145
v -1.010834 0.175117 0.654756
v -1.770763 0.000000 0.413174
v -1.083457 0.000000 0.102039
v -0.324025 -0.004650 0.125747
v -2.413331 -0.004650 1.105751
vt 0.375000 0.000000
vt 0.625000 0.000000
vt 0.625000 0.250000
vt 0.375000 0.250000
vt 0.625000 0.500000
vt 0.375000 0.500000
vt 0.625000 0.750000
vt 0.375000 0.750000
vt 0.625000 1.000000
vt 0.375000 1.000000
vt 0.875000 0.000000
vt 0.750000 0.125000
vt 0.875000 0.250000
vt 0.125000 0.000000
vt 0.250000 0.125000
vt 0.125000 0.250000
vt 0.375000 0.000000
vt 0.625000 0.000000
vt 0.625000 0.250000
vt 0.375000 0.250000
vt 0.625000 0.500000
vt 0.375000 0.500000
vt 0.625000 0.750000
vt 0.375000 0.750000
vt 0.625000 1.000000
vt 0.375000 1.000000
vt 0.875000 0.000000
vt 0.750000 0.125000
vt 0.875000 0.250000
vt 0.125000 0.000000
vt 0.250000 0.125000
vt 0.125000 0.250000
vt 0.375000 0.000000
vt 0.625000 0.000000
vt 0.625000 0.250000
vt 0.375000 0.250000
vt 0.625000 0.500000
vt 0.375000 0.500000
vt 0.625000 0.750000
vt 0.375000 0.750000
vt 0.625000 1.000000
vt 0.375000 1.000000
vt 0.875000 0.000000
vt 0.750000 0.125000
vt 0.875000 0.250000
vt 0.125000 0.000000
vt 0.250000 0.125000
vt 0.125000 0.250000
vt 0.375000 0.000000
vt 0.625000 0.000000
vt 0.625000 0.250000
vt 0.375000 0.250000
vt 0.625000 0.500000
vt 0.375000 0.500000
vt 0.625000 0.750000
vt 0.375000 0.750000
vt 0.625000 1.000000
vt 0.375000 1.000000
vt 0.875000 0.000000
vt 0.750000 0.125000
vt 0.875000 0.250000
vt 0.125000 0.000000
vt 0.250000 0.125000
vt 0.125000 0.250000
vt 0.375000 0.000000
vt 0.625000 0.000000
vt 0.625000 0.250000
vt 0.375000 0.250000
vt 0.625000 0.500000
vt 0.375000 0.500000
vt 0.625000 0.750000
vt 0.375000 0.750000
vt 0.625000 1.000000
vt 0.375000 1.000000
vt 0.875000 0.000000
vt 0.750000 0.125000
vt 0.875000 0.250000
vt 0.125000 0.000000
vt 0.250000 0.125000
vt 0.125000 0.250000
vn 0.522876 -0.841891 0.133495
vn 0.522876 -0.841891 0.133495
vn 0.522876 -0.841891 0.133495
vn 0.522876 -0.841891 0.133495
vn 0.121929 0.984555 0.125641
vn 0.121929 0.984555 0.125641
vn 0.121929 0.984555 0.125641
vn 0.121929 0.984555 0.125641
vn -0.504947 0.853957 -0.125641
vn -0.504947 0.853957 -0.125641
vn -0.504947 0.853957 -0.125641
vn -0.504947 0.853957 -0.125641
vn -0.143184 -0.980652 -0.133495
vn -0.143184 -0.980652 -0.133495
vn -0.143184 -0.980652 -0.133495
vn -0.143184 -0.980652 -0.133495
vn 0.060601 -0.913791 -0.401639
vn 0.060601 -0.913791 -0.401639
vn 0.060601 -0.913791 -0.401639
vn -0.297070 0.872861 -0.387123
vn -0.297069 0.872861 -0.387123
vn -0.297069 0.872861 -0.387123
vn 0.152076 0.966431 -0.207084
vn 0.152075 0.966431 -0.207083
vn 0.152076 0.966431 -0.207084
vn 0.543568 -0.813174 -0.208043
vn 0.543569 -0.813174 -0.208042
vn 0.543568 -0.813174 -0.208042
vn -0.155395 -0.969684 0.188589
vn -0.155395 -0.969684 0.188589
vn -0.155395 -0.969684 0.188589
vn 0.312703 -0.872165 0.376226
vn 0.312703 -0.872165 0.376226
vn 0.312703 -0.872165 0.376226
vn -0.077315 0.928950 0.362041
vn -0.077315 0.928950 0.362041
vn -0.077316 0.928950 0.362040
vn -0.511401 0.838517 0.188038
vn -0.511401 0.838517 0.188038
vn -0.511401 0.838517 0.188038
vn 0.484459 -0.849894 -0.207314
vn 0.484459 -0.849894 -0.207314
vn 0.484459 -0.849894 -0.207314
vn 0.484459 -0.849894 -0.207314
vn 0.085772 0.977022 -0.195118
vn 0.085772 0.977022 -0.195118
vn 0.085772 0.977022 -0.195118
vn 0.085772 0.977022 -0.195118
vn -0.468791 0.861490 0.195118
vn -0.468791 0.861490 0.195118
vn -0.468791 0.861490 0.195118
vn -0.468791 0.861490 0.195118
vn -0.104768 -0.972648 0.207314
vn -0.104768 -0.972648 0.207314
vn -0.104768 -0.972648 0.207314
vn -0.104768 -0.972648 0.207314
vn -0.210527 -0.970275 -0.119351
vn -0.210527 -0.970275 -0.119351
vn -0.210527 -0.970275 -0.119351
vn -0.562560 0.817551 -0.123033
vn -0.562560 0.817551 -0.123033
vn -0.562560 0.817551 -0.123033
vn -0.165225 0.900328 -0.402630
vn -0.165225 0.900328 -0.402629
vn -0.165225 0.900328 -0.402630
vn 0.216728 -0.881265 -0.420002
vn 0.216728 -0.881265 -0.420002
vn 0.216728 -0.881265 -0.420002
vn 0.148586 -0.906355 0.395528
vn 0.148586 -0.906355 0.395528
vn 0.148586 -0.906355 0.395528
vn 0.562687 -0.820085 0.104133
vn 0.562687 -0.820085 0.104133
vn 0.562687 -0.820085 0.104133
vn 0.167404 0.979933 0.108202
vn 0.167404 0.979933 0.108202
vn 0.167403 0.979933 0.108202
vn -0.216608 0.899931 0.378424
vn -0.216608 0.899931 0.378424
vn -0.216608 0.899931 0.378424
vn 0.189846 -0.911271 0.365436
vn 0.189846 -0.911271 0.365436
vn 0.189846 -0.911271 0.365436
vn 0.189846 -0.911271 0.365436
vn -0.191509 0.919256 0.343937
vn -0.191509 0.919256 0.343937
vn -0.191509 0.919256 0.343937
vn -0.191509 0.919256 0.343937
vn -0.191509 0.919256 -0.343937
vn -0.191509 0.919256 -0.343937
vn -0.191509 0.919256 -0.343937
vn -0.191509 0.919256 -0.343937
vn 0.189846 -0.911271 -0.365436
vn 0.189846 -0.911271 -0.365436
vn 0.189846 -0.911271 -0.365436
vn 0.189846 -0.911271 -0.365436
vn 0.505562 -0.821092 -0.264981
vn 0.505562 -0.821092 -0.264981
vn 0.505562 -0.821092 -0.264981
vn 0.125816 0.960961 -0.246425
vn 0.125815 0.960961 -0.246425
vn 0.125815 0.960961 -0.246425
vn 0.125816 0.960961 0.246425
vn 0.125815 0.960961 0.246425
vn 0.125816 0.960961 0.246425
vn 0.505563 -0.821092 0.264981
vn 0.505562 -0.821092 0.264982
vn 0.505562 -0.821092 0.264981
vn -0.109849 -0.960195 -0.256823
vn -0.109849 -0.960195 -0.256823
vn -0.109849 -0.960195 -0.256823
vn -0.109849 -0.960195 0.256823
vn -0.109849 -0.960195 0.256823
vn -0.109849 -0.960195 0.256823
vn -0.477944 0.845487 0.238162
vn -0.477944 0.845487 0.238162
vn -0.477944 0.845487 0.238162
vn -0.477944 0.845487 -0.238162
vn -0.477944 0.845487 -0.238162
vn -0.477944 0.845487 -0.238162
vn 0.535949 -0.836009 0.117677
vn 0.535949 -0.836009 0.117677
vn 0.535949 -0.836009 0.117677
vn 0.535949 -0.836009 0.117677
vn 0.143363 0.946263 -0.289886
vn 0.143363 0.946263 -0.289886
vn 0.143363 0.946263 -0.289886
vn 0.143363 0.946263 -0.289886
vn -0.516935 0.846902 -0.124641
vn -0.516935 0.846902 -0.124641
vn -0.516935 0.846902 -0.124641
vn -0.516935 0.846902 -0.124641
vn -0.165622 -0.941581 0.293250
vn -0.165622 -0.941581 0.293250
vn -0.165622 -0.941581 0.293250
vn -0.165622 -0.941581 0.293250
vn -0.138621 -0.989290 -0.045712
vn -0.138621 -0.989290 -0.045712
vn -0.138621 -0.989290 -0.045712
vn -0.481610 0.755300 -0.444492
vn -0.481610 0.755300 -0.444492
vn -0.481610 0.755300 -0.444492
vn -0.008519 0.826490 -0.562886
vn -0.008519 0.826491 -0.562886
vn -0.008519 0.826490 -0.562886
vn 0.370096 -0.912739 -0.173022
vn 0.370096 -0.912739 -0.173022
vn 0.370096 -0.912739 -0.173022
vn -0.004082 -0.834486 0.551015
vn -0.004082 -0.834486 0.551015
vn -0.004082 -0.834486 0.551015
vn 0.488973 -0.760291 0.427624
vn 0.488973 -0.760291 0.427624
vn 0.488973 -0.760291 0.427624
vn 0.102924 0.994529 0.017864
vn 0.102924 0.994529 0.017864
vn 0.102923 0.994529 0.017864
vn -0.354305 0.925726 0.132289
vn -0.354305 0.925726 0.132289
vn -0.354305 0.925726 0.132289
vn 0.140759 -0.939949 0.310940
vn 0.140759 -0.939949 0.310940
vn 0.140759 -0.939949 0.310940
vn 0.140759 -0.939949 0.310940
vn 0.141840 0.938993 0.313328
vn 0.141840 0.938993 0.313328
vn 0.141840 0.938993 0.313328
vn 0.141840 0.938993 0.313328
vn -0.141840 0.938993 -0.313328
vn -0.141840 0.938993 -0.313328
vn -0.141840 0.938993 -0.313328
vn -0.141840 0.938993 -0.313328
vn -0.150706 -0.930837 -0.332913
vn -0.150706 -0.930837 -0.332913
vn -0.150706 -0.930837 -0.332913
vn -0.150706 -0.930837 -0.332913
vn 0.189050 -0.906944 -0.376449
vn 0.189050 -0.906944 -0.376449
vn 0.189050 -0.906944 -0.376449
vn 0.189131 0.915102 -0.356116
vn 0.189131 0.915102 -0.356115
vn 0.189131 0.915102 -0.356115
vn 0.392382 0.915102 0.092872
vn 0.392382 0.915102 0.092872
vn 0.392382 0.915102 0.092872
vn 0.407607 -0.906943 0.106349
vn 0.407607 -0.906943 0.106349
vn 0.407607 -0.906944 0.106349
vn -0.382289 -0.917609 -0.108855
vn -0.382289 -0.917609 -0.108855
vn -0.382289 -0.917609 -0.108855
vn -0.170461 -0.917609 0.359078
vn -0.170461 -0.917609 0.359078
vn -0.170461 -0.917609 0.359078
vn -0.170946 0.925193 0.338814
vn -0.170946 0.925193 0.338814
vn -0.170946 0.925194 0.338813
vn -0.367382 0.925193 -0.095119
vn -0.367382 0.925193 -0.095119
vn -0.367382 0.925193 -0.095119
s off
g pCube4
usemtl ha:initialShadingGroup
f 1/1/1 2/2/2 4/3/3 3/4/4
f 3/4/5 4/3/6 6/5/7 5/6/8
f 5/6/9 6/5/10 8/7/11 7/8/12
f 7/8/13 8/7/14 2/9/15 1/10/16
f 2/2/17 8/11/18 9/12/19
f 8/11/20 6/13/21 9/12/22
f 6/13/23 4/3/24 9/12/25
f 4/3/26 2/2/27 9/12/28
f 7/14/29 1/1/30 10/15/31
f 1/1/32 3/4/33 10/15/34
f 3/4/35 5/16/36 10/15/37
f 5/16/38 7/14/39 10/15/40
f 11/17/41 12/18/42 14/19/43 13/20/44
f 13/20/45 14/19/46 16/21/47 15/22/48
f 15/22/49 16/21/50 18/23/51 17/24/52
f 17/24/53 18/23/54 12/25/55 11/26/56
f 12/18/57 18/27/58 19/28/59
f 18/27/60 16/29/61 19/28/62
f 16/29/63 14/19/64 19/28/65
f 14/19/66 12/18/67 19/28/68
f 17/30/69 11/17/70 20/31/71
f 11/17/72 13/20/73 20/31/74
f 13/20/75 15/32/76 20/31/77
f 15/32/78 17/30/79 20/31/80
f 21/33/81 22/34/82 24/35/83 23/36/84
f 23/36/85 24/35/86 26/37/87 25/38/88
f 25/38/89 26/37/90 28/39/91 27/40/92
f 27/40/93 28/39/94 22/41/95 21/42/96
f 22/34/97 28/43/98 29/44/99
f 28/43/100 26/45/101 29/44/102
f 26/45/103 24/35/104 29/44/105
f 24/35/106 22/34/107 29/44/108
f 27/46/109 21/33/110 30/47/111
f 21/33/112 23/36/113 30/47/114
f 23/36/115 25/48/116 30/47/117
f 25/48/118 27/46/119 30/47/120
f 31/49/121 32/50/122 34/51/123 33/52/124
f 33/52/125 34/51/126 36/53/127 35/54/128
f 35/54/129 36/53/130 38/55/131 37/56/132
f 37/56/133 38/55/134 32/57/135 31/58/136
f 32/50/137 38/59/138 39/60/139
f 38/59/140 36/61/141 39/60/142
f 36/61/143 34/51/144 39/60/145
f 34/51/146 32/50/147 39/60/148
f 37/62/149 31/49/150 40/63/151
f 31/49/152 33/52/153 40/63/154
f 33/52/155 35/64/156 40/63/157
f 35/64/158 37/62/159 40/63/160
f 41/65/161 42/66/162 44/67/163 43/68/164
f 43/68/165 44/67/166 46/69/167 45/70/168
f 45/70/169 46/69/170 48/71/171 47/72/172
f 47/72/173 48/71/174 42/73/175 41/74/176
f 42/66/177 48/75/178 49/76/179
f 48/75/180 46/77/181 49/76/182
f 46/77/183 44/67/184 49/76/185
f 44/67/186 42/66/187 49/76/188
f 47/78/189 41/65/190 50/79/191
f 41/65/192 43/68/193 50/79/194
f 43/68/195 45/80/196 50/79/197
f 45/80/198 47/78/199 50/79/200
