# This file uses centimeters as units for non-parametric coordinates.

mtllib plant3.mtl
g default
v -0.434591 -0.324580 -0.703632
v -0.462601 -0.209899 -0.908822
v -0.017972 -0.101976 -0.465188
v -0.026188 0.101976 -1.105560
v -0.415481 0.297403 -0.563641
v -0.443492 0.330779 -0.768830
v -0.769416 -0.101976 -0.362610
v -0.897002 0.101976 -1.089647
v -0.577171 0.211492 -1.498538
v -0.317744 0.001450 0.152337
v 0.328764 -0.202869 -0.480334
v 0.619658 -0.173669 -0.741349
v 0.304365 0.067607 -0.114932
v 0.821700 0.119536 -0.391158
v 0.260848 0.349985 -0.515064
v 0.551742 0.379184 -0.776079
v -0.079488 -0.119536 -0.715648
v 0.339463 -0.067607 -1.179845
v 0.865529 -0.246373 -1.325089
v -0.277954 0.094683 0.124843
v -1.249748 -0.324580 -0.229090
v -1.443941 -0.209899 -0.301037
v -0.843169 -0.101976 -0.484273
v -1.411914 0.101976 -0.778672
v -1.117261 0.307486 -0.180005
v -1.311454 0.422167 -0.251950
v -1.106650 -0.101976 0.226900
v -1.729680 0.101976 0.079022
v -1.979881 0.211492 -0.575446
v -0.439652 0.001450 0.071043
v 0.239442 -0.197823 1.176066
v 0.141944 -0.343832 1.146862
v 0.419330 0.231972 1.172790
v 0.327675 -0.027694 0.729827
v 0.085054 0.212054 1.248591
v -0.045730 0.279976 1.009747
v -0.230934 0.027694 1.512519
v -0.512133 -0.231972 1.069556
v -0.336512 -0.107737 0.136362
v 0.299072 0.277179 1.662795
vt 0.375000 0.000000
vt 0.625000 0.000000
vt 0.625000 0.250000
vt 0.375000 0.250000
vt 0.625000 0.500000
vt 0.375000 0.500000
vt 0.625000 0.750000
vt 0.375000 0.750000
vt 0.625000 1.000000
vt 0.375000 1.000000
vt 0.875000 0.000000
vt 0.750000 0.125000
vt 0.875000 0.250000
vt 0.125000 0.000000
vt 0.250000 0.125000
vt 0.125000 0.250000
vt 0.375000 0.000000
vt 0.625000 0.000000
vt 0.625000 0.250000
vt 0.375000 0.250000
vt 0.625000 0.500000
vt 0.375000 0.500000
vt 0.625000 0.750000
vt 0.375000 0.750000
vt 0.625000 1.000000
vt 0.375000 1.000000
vt 0.875000 0.000000
vt 0.750000 0.125000
vt 0.875000 0.250000
vt 0.125000 0.000000
vt 0.250000 0.125000
vt 0.125000 0.250000
vt 0.375000 0.000000
vt 0.625000 0.000000
vt 0.625000 0.250000
vt 0.375000 0.250000
vt 0.625000 0.500000
vt 0.375000 0.500000
vt 0.625000 0.750000
vt 0.375000 0.750000
vt 0.625000 1.000000
vt 0.375000 1.000000
vt 0.875000 0.000000
vt 0.750000 0.125000
vt 0.875000 0.250000
vt 0.125000 0.000000
vt 0.250000 0.125000
vt 0.125000 0.250000
vt 0.375000 0.000000
vt 0.625000 0.000000
vt 0.625000 0.250000
vt 0.375000 0.250000
vt 0.625000 0.500000
vt 0.375000 0.500000
vt 0.625000 0.750000
vt 0.375000 0.750000
vt 0.625000 1.000000
vt 0.375000 1.000000
vt 0.875000 0.000000
vt 0.750000 0.125000
vt 0.875000 0.250000
vt 0.125000 0.000000
vt 0.250000 0.125000
vt 0.125000 0.250000
vn 0.189846 -0.911271 0.365436
vn 0.189846 -0.911271 0.365436
vn 0.189846 -0.911271 0.365436
vn 0.189846 -0.911271 0.365436
vn -0.191509 0.919256 0.343937
vn -0.191509 0.919256 0.343937
vn -0.191509 0.919256 0.343937
vn -0.191509 0.919256 0.343937
vn -0.191509 0.919256 -0.343937
vn -0.191509 0.919256 -0.343937
vn -0.191509 0.919256 -0.343937
vn -0.191509 0.919256 -0.343937
vn 0.189846 -0.911271 -0.365436
vn 0.189846 -0.911271 -0.365436
vn 0.189846 -0.911271 -0.365436
vn 0.189846 -0.911271 -0.365436
vn 0.505562 -0.821092 -0.264981
vn 0.505562 -0.821092 -0.264981
vn 0.505562 -0.821092 -0.264981
vn 0.125816 0.960961 -0.246425
vn 0.125815 0.960961 -0.246425
vn 0.125815 0.960961 -0.246425
vn 0.125816 0.960961 0.246425
vn 0.125815 0.960961 0.246425
vn 0.125816 0.960961 0.246425
vn 0.505563 -0.821092 0.264981
vn 0.505562 -0.821092 0.264982
vn 0.505562 -0.821092 0.264981
vn -0.109849 -0.960195 -0.256823
vn -0.109849 -0.960195 -0.256823
vn -0.109849 -0.960195 -0.256823
vn -0.109849 -0.960195 0.256823
vn -0.109849 -0.960195 0.256823
vn -0.109849 -0.960195 0.256823
vn -0.477944 0.845487 0.238162
vn -0.477944 0.845487 0.238162
vn -0.477944 0.845487 0.238162
vn -0.477944 0.845487 -0.238162
vn -0.477944 0.845487 -0.238162
vn -0.477944 0.845487 -0.238162
vn 0.522876 -0.841891 0.133495
vn 0.522876 -0.841891 0.133495
vn 0.522876 -0.841891 0.133495
vn 0.522876 -0.841891 0.133495
vn 0.121929 0.984555 0.125641
vn 0.121929 0.984555 0.125641
vn 0.121929 0.984555 0.125641
vn 0.121929 0.984555 0.125641
vn -0.504947 0.853957 -0.125641
vn -0.504947 0.853957 -0.125641
vn -0.504947 0.853957 -0.125641
vn -0.504947 0.853957 -0.125641
vn -0.143184 -0.980652 -0.133495
vn -0.143184 -0.980652 -0.133495
vn -0.143184 -0.980652 -0.133495
vn -0.143184 -0.980652 -0.133495
vn 0.060601 -0.913791 -0.401639
vn 0.060601 -0.913791 -0.401639
vn 0.060601 -0.913791 -0.401639
vn -0.297070 0.872861 -0.387123
vn -0.297069 0.872861 -0.387123
vn -0.297069 0.872861 -0.387123
vn 0.152076 0.966431 -0.207084
vn 0.152075 0.966431 -0.207083
vn 0.152076 0.966431 -0.207084
vn 0.543568 -0.813174 -0.208043
vn 0.543569 -0.813174 -0.208042
vn 0.543568 -0.813174 -0.208042
vn -0.155395 -0.969684 0.188589
vn -0.155395 -0.969684 0.188589
vn -0.155395 -0.969684 0.188589
vn 0.312703 -0.872165 0.376226
vn 0.312703 -0.872165 0.376226
vn 0.312703 -0.872165 0.376226
vn -0.077315 0.928950 0.362041
vn -0.077315 0.928950 0.362041
vn -0.077316 0.928950 0.362040
vn -0.511401 0.838517 0.188038
vn -0.511401 0.838517 0.188038
vn -0.511401 0.838517 0.188038
vn 0.189846 -0.911271 0.365436
vn 0.189846 -0.911271 0.365436
vn 0.189846 -0.911271 0.365436
vn 0.189846 -0.911271 0.365436
vn -0.191509 0.919256 0.343937
vn -0.191509 0.919256 0.343937
vn -0.191509 0.919256 0.343937
vn -0.191509 0.919256 0.343937
vn -0.191509 0.919256 -0.343937
vn -0.191509 0.919256 -0.343937
vn -0.191509 0.919256 -0.343937
vn -0.191509 0.919256 -0.343937
vn 0.189846 -0.911271 -0.365436
vn 0.189846 -0.911271 -0.365436
vn 0.189846 -0.911271 -0.365436
vn 0.189846 -0.911271 -0.365436
vn 0.505562 -0.821092 -0.264981
vn 0.505562 -0.821092 -0.264981
vn 0.505562 -0.821092 -0.264981
vn 0.125816 0.960961 -0.246425
vn 0.125815 0.960961 -0.246425
vn 0.125815 0.960961 -0.246425
vn 0.125816 0.960961 0.246425
vn 0.125815 0.960961 0.246425
vn 0.125816 0.960961 0.246425
vn 0.505563 -0.821092 0.264981
vn 0.505562 -0.821092 0.264982
vn 0.505562 -0.821092 0.264981
vn -0.109849 -0.960195 -0.256823
vn -0.109849 -0.960195 -0.256823
vn -0.109849 -0.960195 -0.256823
vn -0.109849 -0.960195 0.256823
vn -0.109849 -0.960195 0.256823
vn -0.109849 -0.960195 0.256823
vn -0.477944 0.845487 0.238162
vn -0.477944 0.845487 0.238162
vn -0.477944 0.845487 0.238162
vn -0.477944 0.845487 -0.238162
vn -0.477944 0.845487 -0.238162
vn -0.477944 0.845487 -0.238162
vn 0.535949 -0.836009 0.117677
vn 0.535949 -0.836009 0.117677
vn 0.535949 -0.836009 0.117677
vn 0.535949 -0.836009 0.117677
vn 0.143363 0.946263 -0.289886
vn 0.143363 0.946263 -0.289886
vn 0.143363 0.946263 -0.289886
vn 0.143363 0.946263 -0.289886
vn -0.516935 0.846902 -0.124641
vn -0.516935 0.846902 -0.124641
vn -0.516935 0.846902 -0.124641
vn -0.516935 0.846902 -0.124641
vn -0.165622 -0.941581 0.293250
vn -0.165622 -0.941581 0.293250
vn -0.165622 -0.941581 0.293250
vn -0.165622 -0.941581 0.293250
vn -0.138621 -0.989290 -0.045712
vn -0.138621 -0.989290 -0.045712
vn -0.138621 -0.989290 -0.045712
vn -0.481610 0.755300 -0.444492
vn -0.481610 0.755300 -0.444492
vn -0.481610 0.755300 -0.444492
vn -0.008519 0.826490 -0.562886
vn -0.008519 0.826491 -0.562886
vn -0.008519 0.826490 -0.562886
vn 0.370096 -0.912739 -0.173022
vn 0.370096 -0.912739 -0.173022
vn 0.370096 -0.912739 -0.173022
vn -0.004082 -0.834486 0.551015
vn -0.004082 -0.834486 0.551015
vn -0.004082 -0.834486 0.551015
vn 0.488973 -0.760291 0.427624
vn 0.488973 -0.760291 0.427624
vn 0.488973 -0.760291 0.427624
vn 0.102924 0.994529 0.017864
vn 0.102924 0.994529 0.017864
vn 0.102923 0.994529 0.017864
vn -0.354305 0.925726 0.132289
vn -0.354305 0.925726 0.132289
vn -0.354305 0.925726 0.132289
s off
g pCube6
usemtl ha:initialShadingGroup
f 1/1/1 2/2/2 4/3/3 3/4/4
f 3/4/5 4/3/6 6/5/7 5/6/8
f 5/6/9 6/5/10 8/7/11 7/8/12
f 7/8/13 8/7/14 2/9/15 1/10/16
f 2/2/17 8/11/18 9/12/19
f 8/11/20 6/13/21 9/12/22
f 6/13/23 4/3/24 9/12/25
f 4/3/26 2/2/27 9/12/28
f 7/14/29 1/1/30 10/15/31
f 1/1/32 3/4/33 10/15/34
f 3/4/35 5/16/36 10/15/37
f 5/16/38 7/14/39 10/15/40
f 11/17/41 12/18/42 14/19/43 13/20/44
f 13/20/45 14/19/46 16/21/47 15/22/48
f 15/22/49 16/21/50 18/23/51 17/24/52
f 17/24/53 18/23/54 12/25/55 11/26/56
f 12/18/57 18/27/58 19/28/59
f 18/27/60 16/29/61 19/28/62
f 16/29/63 14/19/64 19/28/65
f 14/19/66 12/18/67 19/28/68
f 17/30/69 11/17/70 20/31/71
f 11/17/72 13/20/73 20/31/74
f 13/20/75 15/32/76 20/31/77
f 15/32/78 17/30/79 20/31/80
f 21/33/81 22/34/82 24/35/83 23/36/84
f 23/36/85 24/35/86 26/37/87 25/38/88
f 25/38/89 26/37/90 28/39/91 27/40/92
f 27/40/93 28/39/94 22/41/95 21/42/96
f 22/34/97 28/43/98 29/44/99
f 28/43/100 26/45/101 29/44/102
f 26/45/103 24/35/104 29/44/105
f 24/35/106 22/34/107 29/44/108
f 27/46/109 21/33/110 30/47/111
f 21/33/112 23/36/113 30/47/114
f 23/36/115 25/48/116 30/47/117
f 25/48/118 27/46/119 30/47/120
f 31/49/121 32/50/122 34/51/123 33/52/124
f 33/52/125 34/51/126 36/53/127 35/54/128
f 35/54/129 36/53/130 38/55/131 37/56/132
f 37/56/133 38/55/134 32/57/135 31/58/136
f 32/50/137 38/59/138 39/60/139
f 38/59/140 36/61/141 39/60/142
f 36/61/143 34/51/144 39/60/145
f 34/51/146 32/50/147 39/60/148
f 37/62/149 31/49/150 40/63/151
f 31/49/152 33/52/153 40/63/154
f 33/52/155 35/64/156 40/63/157
f 35/64/158 37/62/159 40/63/160
g default
v -0.434591 -0.324580 -0.703632
v -0.462601 -0.209899 -0.908822
v -0.017972 -0.101976 -0.465188
v -0.026188 0.101976 -1.105560
v -0.415481 0.297403 -0.563641
v -0.443492 0.330779 -0.768830
v -0.769416 -0.101976 -0.362610
v -0.897002 0.101976 -1.089647
v -0.577171 0.211492 -1.498538
v -0.317744 0.001450 0.152337
v 0.328764 -0.202869 -0.480334
v 0.619658 -0.173669 -0.741349
v 0.304365 0.067607 -0.114932
v 0.821700 0.119536 -0.391158
v 0.260848 0.349985 -0.515064
v 0.551742 0.379184 -0.776079
v -0.079488 -0.119536 -0.715648
v 0.339463 -0.067607 -1.179845
v 0.865529 -0.246373 -1.325089
v -0.277954 0.094683 0.124843
v 0.567403 -0.324580 0.389797
v 0.766542 -0.209899 0.446636
v 0.181594 -0.101976 0.675415
v 0.771245 0.101976 0.925322
v 0.431540 0.307486 0.351019
v 0.630678 0.422167 0.407858
v 0.389750 -0.101976 -0.053873
v 1.022288 0.101976 0.045781
v 1.321951 0.211492 0.679128
v -0.263329 0.001450 0.152686
v 0.239442 -0.197823 1.176066
v 0.141944 -0.343832 1.146862
v 0.419330 0.231972 1.172790
v 0.327675 -0.027694 0.729827
v 0.085054 0.212054 1.248591
v -0.045730 0.279976 1.009747
v -0.230934 0.027694 1.512519
v -0.512133 -0.231972 1.069556
v -0.336512 -0.107737 0.136362
v 0.299072 0.277179 1.662795
v -1.362930 -0.193717 0.814145
v -1.010834 -0.193717 0.654756
v -1.145277 0.025960 1.226544
v -0.643445 0.000000 1.074036
v -1.259812 0.147741 0.900458
v -1.010834 0.175117 0.654756
v -1.538031 0.025960 0.597069
v -1.083457 0.000000 0.102039
v -0.324025 -0.004650 0.125747
v -1.575996 0.022726 1.148911
vt 0.375000 0.000000
vt 0.625000 0.000000
vt 0.625000 0.250000
vt 0.375000 0.250000
vt 0.625000 0.500000
vt 0.375000 0.500000
vt 0.625000 0.750000
vt 0.375000 0.750000
vt 0.625000 1.000000
vt 0.375000 1.000000
vt 0.875000 0.000000
vt 0.750000 0.125000
vt 0.875000 0.250000
vt 0.125000 0.000000
vt 0.250000 0.125000
vt 0.125000 0.250000
vt 0.375000 0.000000
vt 0.625000 0.000000
vt 0.625000 0.250000
vt 0.375000 0.250000
vt 0.625000 0.500000
vt 0.375000 0.500000
vt 0.625000 0.750000
vt 0.375000 0.750000
vt 0.625000 1.000000
vt 0.375000 1.000000
vt 0.875000 0.000000
vt 0.750000 0.125000
vt 0.875000 0.250000
vt 0.125000 0.000000
vt 0.250000 0.125000
vt 0.125000 0.250000
vt 0.375000 0.000000
vt 0.625000 0.000000
vt 0.625000 0.250000
vt 0.375000 0.250000
vt 0.625000 0.500000
vt 0.375000 0.500000
vt 0.625000 0.750000
vt 0.375000 0.750000
vt 0.625000 1.000000
vt 0.375000 1.000000
vt 0.875000 0.000000
vt 0.750000 0.125000
vt 0.875000 0.250000
vt 0.125000 0.000000
vt 0.250000 0.125000
vt 0.125000 0.250000
vt 0.375000 0.000000
vt 0.625000 0.000000
vt 0.625000 0.250000
vt 0.375000 0.250000
vt 0.625000 0.500000
vt 0.375000 0.500000
vt 0.625000 0.750000
vt 0.375000 0.750000
vt 0.625000 1.000000
vt 0.375000 1.000000
vt 0.875000 0.000000
vt 0.750000 0.125000
vt 0.875000 0.250000
vt 0.125000 0.000000
vt 0.250000 0.125000
vt 0.125000 0.250000
vt 0.375000 0.000000
vt 0.625000 0.000000
vt 0.625000 0.250000
vt 0.375000 0.250000
vt 0.625000 0.500000
vt 0.375000 0.500000
vt 0.625000 0.750000
vt 0.375000 0.750000
vt 0.625000 1.000000
vt 0.375000 1.000000
vt 0.875000 0.000000
vt 0.750000 0.125000
vt 0.875000 0.250000
vt 0.125000 0.000000
vt 0.250000 0.125000
vt 0.125000 0.250000
vn 0.189846 -0.911271 0.365436
vn 0.189846 -0.911271 0.365436
vn 0.189846 -0.911271 0.365436
vn 0.189846 -0.911271 0.365436
vn -0.191509 0.919256 0.343937
vn -0.191509 0.919256 0.343937
vn -0.191509 0.919256 0.343937
vn -0.191509 0.919256 0.343937
vn -0.191509 0.919256 -0.343937
vn -0.191509 0.919256 -0.343937
vn -0.191509 0.919256 -0.343937
vn -0.191509 0.919256 -0.343937
vn 0.189846 -0.911271 -0.365436
vn 0.189846 -0.911271 -0.365436
vn 0.189846 -0.911271 -0.365436
vn 0.189846 -0.911271 -0.365436
vn 0.505562 -0.821092 -0.264981
vn 0.505562 -0.821092 -0.264981
vn 0.505562 -0.821092 -0.264981
vn 0.125816 0.960961 -0.246425
vn 0.125815 0.960961 -0.246425
vn 0.125815 0.960961 -0.246425
vn 0.125816 0.960961 0.246425
vn 0.125815 0.960961 0.246425
vn 0.125816 0.960961 0.246425
vn 0.505563 -0.821092 0.264981
vn 0.505562 -0.821092 0.264982
vn 0.505562 -0.821092 0.264981
vn -0.109849 -0.960195 -0.256823
vn -0.109849 -0.960195 -0.256823
vn -0.109849 -0.960195 -0.256823
vn -0.109849 -0.960195 0.256823
vn -0.109849 -0.960195 0.256823
vn -0.109849 -0.960195 0.256823
vn -0.477944 0.845487 0.238162
vn -0.477944 0.845487 0.238162
vn -0.477944 0.845487 0.238162
vn -0.477944 0.845487 -0.238162
vn -0.477944 0.845487 -0.238162
vn -0.477944 0.845487 -0.238162
vn 0.522876 -0.841891 0.133495
vn 0.522876 -0.841891 0.133495
vn 0.522876 -0.841891 0.133495
vn 0.522876 -0.841891 0.133495
vn 0.121929 0.984555 0.125641
vn 0.121929 0.984555 0.125641
vn 0.121929 0.984555 0.125641
vn 0.121929 0.984555 0.125641
vn -0.504947 0.853957 -0.125641
vn -0.504947 0.853957 -0.125641
vn -0.504947 0.853957 -0.125641
vn -0.504947 0.853957 -0.125641
vn -0.143184 -0.980652 -0.133495
vn -0.143184 -0.980652 -0.133495
vn -0.143184 -0.980652 -0.133495
vn -0.143184 -0.980652 -0.133495
vn 0.060601 -0.913791 -0.401639
vn 0.060601 -0.913791 -0.401639
vn 0.060601 -0.913791 -0.401639
vn -0.297070 0.872861 -0.387123
vn -0.297069 0.872861 -0.387123
vn -0.297069 0.872861 -0.387123
vn 0.152076 0.966431 -0.207084
vn 0.152075 0.966431 -0.207083
vn 0.152076 0.966431 -0.207084
vn 0.543568 -0.813174 -0.208043
vn 0.543569 -0.813174 -0.208042
vn 0.543568 -0.813174 -0.208042
vn -0.155395 -0.969684 0.188589
vn -0.155395 -0.969684 0.188589
vn -0.155395 -0.969684 0.188589
vn 0.312703 -0.872165 0.376226
vn 0.312703 -0.872165 0.376226
vn 0.312703 -0.872165 0.376226
vn -0.077315 0.928950 0.362041
vn -0.077315 0.928950 0.362041
vn -0.077316 0.928950 0.362040
vn -0.511401 0.838517 0.188038
vn -0.511401 0.838517 0.188038
vn -0.511401 0.838517 0.188038
vn 0.189846 -0.911271 0.365436
vn 0.189846 -0.911271 0.365436
vn 0.189846 -0.911271 0.365436
vn 0.189846 -0.911271 0.365436
vn -0.191509 0.919256 0.343937
vn -0.191509 0.919256 0.343937
vn -0.191509 0.919256 0.343937
vn -0.191509 0.919256 0.343937
vn -0.191509 0.919256 -0.343937
vn -0.191509 0.919256 -0.343937
vn -0.191509 0.919256 -0.343937
vn -0.191509 0.919256 -0.343937
vn 0.189846 -0.911271 -0.365436
vn 0.189846 -0.911271 -0.365436
vn 0.189846 -0.911271 -0.365436
vn 0.189846 -0.911271 -0.365436
vn 0.505562 -0.821092 -0.264981
vn 0.505562 -0.821092 -0.264981
vn 0.505562 -0.821092 -0.264981
vn 0.125816 0.960961 -0.246425
vn 0.125815 0.960961 -0.246425
vn 0.125815 0.960961 -0.246425
vn 0.125816 0.960961 0.246425
vn 0.125815 0.960961 0.246425
vn 0.125816 0.960961 0.246425
vn 0.505563 -0.821092 0.264981
vn 0.505562 -0.821092 0.264982
vn 0.505562 -0.821092 0.264981
vn -0.109849 -0.960195 -0.256823
vn -0.109849 -0.960195 -0.256823
vn -0.109849 -0.960195 -0.256823
vn -0.109849 -0.960195 0.256823
vn -0.109849 -0.960195 0.256823
vn -0.109849 -0.960195 0.256823
vn -0.477944 0.845487 0.238162
vn -0.477944 0.845487 0.238162
vn -0.477944 0.845487 0.238162
vn -0.477944 0.845487 -0.238162
vn -0.477944 0.845487 -0.238162
vn -0.477944 0.845487 -0.238162
vn 0.535949 -0.836009 0.117677
vn 0.535949 -0.836009 0.117677
vn 0.535949 -0.836009 0.117677
vn 0.535949 -0.836009 0.117677
vn 0.143363 0.946263 -0.289886
vn 0.143363 0.946263 -0.289886
vn 0.143363 0.946263 -0.289886
vn 0.143363 0.946263 -0.289886
vn -0.516935 0.846902 -0.124641
vn -0.516935 0.846902 -0.124641
vn -0.516935 0.846902 -0.124641
vn -0.516935 0.846902 -0.124641
vn -0.165622 -0.941581 0.293250
vn -0.165622 -0.941581 0.293250
vn -0.165622 -0.941581 0.293250
vn -0.165622 -0.941581 0.293250
vn -0.138621 -0.989290 -0.045712
vn -0.138621 -0.989290 -0.045712
vn -0.138621 -0.989290 -0.045712
vn -0.481610 0.755300 -0.444492
vn -0.481610 0.755300 -0.444492
vn -0.481610 0.755300 -0.444492
vn -0.008519 0.826490 -0.562886
vn -0.008519 0.826491 -0.562886
vn -0.008519 0.826490 -0.562886
vn 0.370096 -0.912739 -0.173022
vn 0.370096 -0.912739 -0.173022
vn 0.370096 -0.912739 -0.173022
vn -0.004082 -0.834486 0.551015
vn -0.004082 -0.834486 0.551015
vn -0.004082 -0.834486 0.551015
vn 0.488973 -0.760291 0.427624
vn 0.488973 -0.760291 0.427624
vn 0.488973 -0.760291 0.427624
vn 0.102924 0.994529 0.017864
vn 0.102924 0.994529 0.017864
vn 0.102923 0.994529 0.017864
vn -0.354305 0.925726 0.132289
vn -0.354305 0.925726 0.132289
vn -0.354305 0.925726 0.132289
vn 0.110488 -0.918789 0.378971
vn 0.110488 -0.918789 0.378971
vn 0.110488 -0.918789 0.378971
vn 0.110488 -0.918789 0.378971
vn 0.141840 0.938993 0.313328
vn 0.141840 0.938993 0.313328
vn 0.141840 0.938993 0.313328
vn 0.141840 0.938993 0.313328
vn -0.141840 0.938993 -0.313328
vn -0.141840 0.938993 -0.313328
vn -0.141840 0.938993 -0.313328
vn -0.141840 0.938993 -0.313328
vn -0.150706 -0.930837 -0.332913
vn -0.150706 -0.930837 -0.332913
vn -0.150706 -0.930837 -0.332913
vn -0.150706 -0.930837 -0.332913
vn 0.189050 -0.906944 -0.376449
vn 0.189050 -0.906944 -0.376449
vn 0.189050 -0.906944 -0.376449
vn 0.189131 0.915102 -0.356116
vn 0.189131 0.915102 -0.356115
vn 0.189131 0.915102 -0.356115
vn 0.392382 0.915102 0.092872
vn 0.392382 0.915102 0.092872
vn 0.392382 0.915102 0.092872
vn 0.407607 -0.906943 0.106349
vn 0.407607 -0.906943 0.106349
vn 0.407607 -0.906944 0.106349
vn -0.382289 -0.917609 -0.108855
vn -0.382289 -0.917609 -0.108855
vn -0.382289 -0.917609 -0.108855
vn -0.170461 -0.917609 0.359078
vn -0.170461 -0.917609 0.359078
vn -0.170461 -0.917609 0.359078
vn -0.170946 0.925193 0.338814
vn -0.170946 0.925193 0.338814
vn -0.170946 0.925194 0.338813
vn -0.367382 0.925193 -0.095119
vn -0.367382 0.925193 -0.095119
vn -0.367382 0.925193 -0.095119
s off
g pCube7
usemtl ha:initialShadingGroup
f 41/65/161 42/66/162 44/67/163 43/68/164
f 43/68/165 44/67/166 46/69/167 45/70/168
f 45/70/169 46/69/170 48/71/171 47/72/172
f 47/72/173 48/71/174 42/73/175 41/74/176
f 42/66/177 48/75/178 49/76/179
f 48/75/180 46/77/181 49/76/182
f 46/77/183 44/67/184 49/76/185
f 44/67/186 42/66/187 49/76/188
f 47/78/189 41/65/190 50/79/191
f 41/65/192 43/68/193 50/79/194
f 43/68/195 45/80/196 50/79/197
f 45/80/198 47/78/199 50/79/200
f 51/81/201 52/82/202 54/83/203 53/84/204
f 53/84/205 54/83/206 56/85/207 55/86/208
f 55/86/209 56/85/210 58/87/211 57/88/212
f 57/88/213 58/87/214 52/89/215 51/90/216
f 52/82/217 58/91/218 59/92/219
f 58/91/220 56/93/221 59/92/222
f 56/93/223 54/83/224 59/92/225
f 54/83/226 52/82/227 59/92/228
f 57/94/229 51/81/230 60/95/231
f 51/81/232 53/84/233 60/95/234
f 53/84/235 55/96/236 60/95/237
f 55/96/238 57/94/239 60/95/240
f 61/97/241 62/98/242 64/99/243 63/100/244
f 63/100/245 64/99/246 66/101/247 65/102/248
f 65/102/249 66/101/250 68/103/251 67/104/252
f 67/104/253 68/103/254 62/105/255 61/106/256
f 62/98/257 68/107/258 69/108/259
f 68/107/260 66/109/261 69/108/262
f 66/109/263 64/99/264 69/108/265
f 64/99/266 62/98/267 69/108/268
f 67/110/269 61/97/270 70/111/271
f 61/97/272 63/100/273 70/111/274
f 63/100/275 65/112/276 70/111/277
f 65/112/278 67/110/279 70/111/280
f 71/113/281 72/114/282 74/115/283 73/116/284
f 73/116/285 74/115/286 76/117/287 75/118/288
f 75/118/289 76/117/290 78/119/291 77/120/292
f 77/120/293 78/119/294 72/121/295 71/122/296
f 72/114/297 78/123/298 79/124/299
f 78/123/300 76/125/301 79/124/302
f 76/125/303 74/115/304 79/124/305
f 74/115/306 72/114/307 79/124/308
f 77/126/309 71/113/310 80/127/311
f 71/113/312 73/116/313 80/127/314
f 73/116/315 75/128/316 80/127/317
f 75/128/318 77/126/319 80/127/320
f 81/129/321 82/130/322 84/131/323 83/132/324
f 83/132/325 84/131/326 86/133/327 85/134/328
f 85/134/329 86/133/330 88/135/331 87/136/332
f 87/136/333 88/135/334 82/137/335 81/138/336
f 82/130/337 88/139/338 89/140/339
f 88/139/340 86/141/341 89/140/342
f 86/141/343 84/131/344 89/140/345
f 84/131/346 82/130/347 89/140/348
f 87/142/349 81/129/350 90/143/351
f 81/129/352 83/132/353 90/143/354
f 83/132/355 85/144/356 90/143/357
f 85/144/358 87/142/359 90/143/360
