# Blender v3.1.2 OBJ File: 'Enemy.blend'
# www.blender.org
mtllib Rock.mtl
o Rock_çƒ.002
v -0.112649 0.299464 0.171658
v -0.193462 0.259149 0.142090
v -0.217938 0.202470 0.006231
v -0.249579 0.176649 -0.011846
v -0.218817 0.150322 -0.075071
v -0.188278 0.106299 -0.133924
v -0.037167 0.352215 0.131487
v -0.103990 0.402353 0.130580
v -0.154017 0.359417 0.070408
v -0.207985 0.355006 0.051032
v -0.236484 0.311961 -0.010915
v -0.229552 0.278653 -0.091937
v -0.228115 0.214879 -0.139226
v -0.183971 0.149755 -0.175742
v 0.011278 0.391236 0.115888
v -0.014177 0.436962 0.065213
v -0.006419 0.421376 -0.006914
v -0.108144 0.389052 -0.053925
v -0.151449 0.352476 -0.096528
v -0.134395 0.323202 -0.166670
v -0.089551 0.232682 -0.191769
v -0.129547 0.185800 -0.188488
v -0.107216 0.123812 -0.145240
v 0.062293 0.366063 0.092632
v 0.084098 0.356266 0.024671
v 0.088823 0.374363 -0.018064
v 0.068379 0.314956 -0.083649
v 0.046344 0.300033 -0.125163
v -0.015610 0.265628 -0.155392
v -0.027978 0.235783 -0.196330
v -0.070860 0.179250 -0.182491
v 0.090396 0.273346 0.124332
v 0.138835 0.263536 0.058286
v 0.150072 0.272348 -0.024396
v 0.135707 0.240078 -0.043709
v 0.124662 0.225051 -0.101275
v 0.079026 0.180919 -0.146998
v 0.019280 0.162702 -0.186241
v -0.031624 0.133062 -0.168448
v 0.025853 0.305522 0.131564
v 0.092592 0.222494 0.118118
v 0.135555 0.175193 0.103691
v 0.171823 0.116214 0.074409
v 0.145280 0.095224 0.033091
v 0.131664 0.036054 -0.013063
v 0.095278 0.038703 -0.086201
v 0.016365 0.043832 -0.132849
v -0.038549 0.085652 -0.132320
v 0.052722 0.239091 0.176004
v 0.047121 0.169238 0.173949
v 0.045311 0.095571 0.147711
v 0.031601 0.036212 0.145088
v 0.004056 -0.007661 0.076019
v -0.024468 0.012069 -0.012605
v -0.066867 0.004866 -0.067482
v -0.082836 0.064919 -0.097539
v 0.020352 0.260427 0.199711
v -0.035270 0.195569 0.237800
v -0.083549 0.119321 0.188683
v -0.080769 0.097620 0.135421
v -0.118273 0.064263 0.091668
v -0.140679 0.040837 0.020869
v -0.171560 0.038861 -0.042939
v -0.138542 0.083007 -0.084479
v -0.026726 0.319950 0.171337
v -0.201070 0.237034 0.101966
vt 0.750000 0.444444
vt 0.750000 0.555556
vt 0.625000 0.555556
vt 0.625000 0.444444
vt 0.750000 0.777778
vt 0.750000 0.888889
vt 0.625000 0.888889
vt 0.625000 0.777778
vt 0.687500 0.000000
vt 0.750000 0.111111
vt 0.625000 0.111111
vt 0.750000 0.333333
vt 0.625000 0.333333
vt 0.750000 0.666667
vt 0.625000 0.666667
vt 0.750000 0.222222
vt 0.625000 0.222222
vt 0.687500 1.000000
vt 0.500000 0.777778
vt 0.500000 0.666667
vt 0.500000 0.333333
vt 0.500000 0.222222
vt 0.500000 0.555556
vt 0.562500 1.000000
vt 0.500000 0.888889
vt 0.500000 0.111111
vt 0.500000 0.444444
vt 0.562500 0.000000
vt 0.437500 1.000000
vt 0.375000 0.888889
vt 0.375000 0.222222
vt 0.375000 0.111111
vt 0.375000 0.555556
vt 0.375000 0.444444
vt 0.375000 0.777778
vt 0.437500 0.000000
vt 0.375000 0.333333
vt 0.375000 0.666667
vt 0.312500 0.000000
vt 0.250000 0.111111
vt 0.250000 0.444444
vt 0.250000 0.333333
vt 0.250000 0.777778
vt 0.250000 0.666667
vt 0.250000 0.222222
vt 0.250000 0.555556
vt 0.312500 1.000000
vt 0.250000 0.888889
vt 0.125000 0.333333
vt 0.125000 0.222222
vt 0.125000 0.666667
vt 0.125000 0.555556
vt 0.187500 1.000000
vt 0.125000 0.888889
vt 0.125000 0.111111
vt 0.125000 0.444444
vt 0.125000 0.777778
vt 0.187500 0.000000
vt 0.000000 0.555556
vt 0.000000 0.444444
vt 0.000000 0.888889
vt 0.000000 0.777778
vt 0.062500 0.000000
vt 0.000000 0.111111
vt 0.000000 0.333333
vt 0.000000 0.666667
vt 0.000000 0.222222
vt 0.062500 1.000000
vt 1.000000 0.666667
vt 1.000000 0.777778
vt 0.875000 0.777778
vt 0.875000 0.666667
vt 1.000000 0.222222
vt 1.000000 0.333333
vt 0.875000 0.333333
vt 0.875000 0.222222
vt 1.000000 0.555556
vt 0.875000 0.555556
vt 1.000000 0.888889
vt 0.937500 1.000000
vt 0.875000 0.888889
vt 1.000000 0.111111
vt 0.875000 0.111111
vt 1.000000 0.444444
vt 0.875000 0.444444
vt 0.937500 0.000000
vt 0.812500 1.000000
vt 0.812500 0.000000
vn -0.9579 -0.0216 0.2862
vn 0.0962 0.5123 0.8534
vn 0.0501 -0.6951 -0.7172
vn -0.9777 0.0933 0.1881
vn -0.6828 0.4715 0.5581
vn -0.9746 -0.1073 -0.1964
vn -0.7178 0.4193 0.5559
vn 0.5332 0.7204 0.4436
vn -0.8889 -0.3411 -0.3058
vn -0.4791 0.8491 -0.2225
vn -0.5124 0.2340 -0.8263
vn -0.2778 0.9525 0.1245
vn 0.1487 0.2023 0.9680
vn -0.3724 0.2513 -0.8934
vn -0.5562 0.7995 -0.2268
vn 0.1578 0.5814 0.7982
vn 0.1537 -0.5275 -0.8355
vn -0.6479 0.6620 -0.3769
vn 0.4974 0.2372 0.8344
vn 0.0069 -0.1687 -0.9856
vn 0.1682 0.7772 -0.6064
vn 0.6235 0.7533 0.2090
vn 0.0209 -0.5670 -0.8235
vn 0.2350 0.7698 -0.5935
vn 0.5637 0.8221 0.0792
vn 0.1855 0.5107 -0.8395
vn 0.1823 0.6561 -0.7323
vn -0.2126 -0.4451 -0.8699
vn 0.4140 0.2728 -0.8685
vn 0.8250 0.5218 0.2170
vn 0.5458 0.4049 -0.7336
vn 0.6633 0.3572 -0.6576
vn 0.2911 0.3873 0.8748
vn -0.0874 -0.2581 -0.9622
vn 0.7353 0.5405 -0.4089
vn 0.8030 0.4821 0.3504
vn 0.5206 -0.3197 -0.7917
vn 0.8794 -0.1684 -0.4454
vn 0.0518 -0.1189 0.9916
vn -0.2025 -0.4549 -0.8672
vn 0.9790 -0.0491 -0.1977
vn 0.7120 0.1852 0.6773
vn -0.1731 -0.5808 -0.7954
vn 0.8378 -0.1740 -0.5175
vn 0.9278 0.2391 0.2865
vn 0.6167 -0.6834 0.3908
vn 0.7062 0.1272 0.6965
vn -0.2394 -0.6690 -0.7036
vn 0.1484 -0.9698 -0.1937
vn 0.5614 -0.1912 0.8052
vn 0.1789 -0.9645 -0.1940
vn 0.6057 -0.5934 0.5301
vn 0.7542 0.5475 0.3625
vn -0.3829 -0.4929 -0.7813
vn 0.2847 -0.5048 0.8150
vn -0.2165 -0.9540 0.2075
vn -0.0895 -0.5571 0.8256
vn 0.6955 0.5721 0.4347
vn -0.3469 -0.4919 -0.7985
vn -0.3587 -0.6609 0.6592
vn 0.5915 -0.0536 0.8045
vn -0.3688 -0.6724 -0.6417
vn -0.3612 -0.9224 0.1368
vn 0.5550 0.6724 0.4898
vn -0.6177 -0.6818 -0.3919
vn -0.7716 -0.3993 0.4952
vn -0.0466 0.4733 0.8797
vn 0.1121 -0.8507 -0.5135
vn -0.7346 -0.2958 0.6106
vn -0.5185 -0.0029 0.8551
vn -0.8532 -0.5089 0.1142
vn -0.7765 -0.5541 0.3001
usemtl None
s off
f 3/1/1 66/2/1 10/3/1 11/4/1
f 1/5/2 65/6/2 7/7/2 8/8/2
f 23/9/3 6/10/3 14/11/3
f 4/12/4 3/1/4 11/4/4 12/13/4
f 2/14/5 1/5/5 8/8/5 9/15/5
f 5/16/6 4/12/6 12/13/6 13/17/6
f 66/2/7 2/14/7 9/15/7 10/3/7
f 65/6/8 40/18/8 7/7/8
f 6/10/9 5/16/9 13/17/9 14/11/9
f 9/15/10 8/8/10 16/19/10 17/20/10
f 13/17/11 12/13/11 20/21/11 21/22/11
f 10/3/12 9/15/12 17/20/12 18/23/12
f 7/7/13 40/24/13 15/25/13
f 14/11/14 13/17/14 21/22/14 22/26/14
f 11/4/15 10/3/15 18/23/15 19/27/15
f 8/8/16 7/7/16 15/25/16 16/19/16
f 23/28/17 14/11/17 22/26/17
f 12/13/18 11/4/18 19/27/18 20/21/18
f 15/25/19 40/29/19 24/30/19
f 22/26/20 21/22/20 30/31/20 31/32/20
f 19/27/21 18/23/21 27/33/21 28/34/21
f 16/19/22 15/25/22 24/30/22 25/35/22
f 23/36/23 22/26/23 31/32/23
f 20/21/24 19/27/24 28/34/24 29/37/24
f 17/20/25 16/19/25 25/35/25 26/38/25
f 21/22/26 20/21/26 29/37/26 30/31/26
f 18/23/27 17/20/27 26/38/27 27/33/27
f 23/39/28 31/32/28 39/40/28
f 29/37/29 28/34/29 36/41/29 37/42/29
f 26/38/30 25/35/30 33/43/30 34/44/30
f 30/31/31 29/37/31 37/42/31 38/45/31
f 27/33/32 26/38/32 34/44/32 35/46/32
f 24/30/33 40/47/33 32/48/33
f 31/32/34 30/31/34 38/45/34 39/40/34
f 28/34/35 27/33/35 35/46/35 36/41/35
f 25/35/36 24/30/36 32/48/36 33/43/36
f 38/45/37 37/42/37 46/49/37 47/50/37
f 35/46/38 34/44/38 43/51/38 44/52/38
f 32/48/39 40/53/39 41/54/39
f 39/40/40 38/45/40 47/50/40 48/55/40
f 36/41/41 35/46/41 44/52/41 45/56/41
f 33/43/42 32/48/42 41/54/42 42/57/42
f 23/58/43 39/40/43 48/55/43
f 37/42/44 36/41/44 45/56/44 46/49/44
f 34/44/45 33/43/45 42/57/45 43/51/45
f 45/56/46 44/52/46 52/59/46 53/60/46
f 42/57/47 41/54/47 49/61/47 50/62/47
f 23/63/48 48/55/48 56/64/48
f 46/49/49 45/56/49 53/60/49 54/65/49
f 43/51/50 42/57/50 50/62/50 51/66/50
f 47/50/51 46/49/51 54/65/51 55/67/51
f 44/52/52 43/51/52 51/66/52 52/59/52
f 41/54/53 40/68/53 49/61/53
f 48/55/54 47/50/54 55/67/54 56/64/54
f 51/69/55 50/70/55 58/71/55 59/72/55
f 55/73/56 54/74/56 62/75/56 63/76/56
f 52/77/57 51/69/57 59/72/57 60/78/57
f 49/79/58 40/80/58 57/81/58
f 56/82/59 55/73/59 63/76/59 64/83/59
f 53/84/60 52/77/60 60/78/60 61/85/60
f 50/70/61 49/79/61 57/81/61 58/71/61
f 23/86/62 56/82/62 64/83/62
f 54/74/63 53/84/63 61/85/63 62/75/63
f 57/81/64 40/87/64 65/6/64
f 64/83/65 63/76/65 5/16/65 6/10/65
f 61/85/66 60/78/66 66/2/66 3/1/66
f 58/71/67 57/81/67 65/6/67 1/5/67
f 23/88/68 64/83/68 6/10/68
f 62/75/69 61/85/69 3/1/69 4/12/69
f 59/72/70 58/71/70 1/5/70 2/14/70
f 63/76/71 62/75/71 4/12/71 5/16/71
f 60/78/72 59/72/72 2/14/72 66/2/72
