# Blender 3.1.2
# www.blender.org
mtllib Fllor_Octagon.mtl
o 円柱
v 0.000000 0.000000 -0.500000
v 0.353553 0.000000 -0.353553
v 0.500000 0.000000 0.000000
v 0.353553 0.000000 0.353553
v -0.000000 0.000000 0.500000
v -0.353553 0.000000 0.353553
v -0.500000 0.000000 -0.000000
v -0.353553 0.000000 -0.353553
vn -0.0000 1.0000 -0.0000
vt 0.250000 0.490000
vt 0.419706 0.419706
vt 0.490000 0.250000
vt 0.419706 0.080294
vt 0.250000 0.010000
vt 0.080294 0.080294
vt 0.010000 0.250000
vt 0.080294 0.419706
s 0
f 2/2/1 1/1/1 8/8/1 7/7/1 6/6/1 5/5/1 4/4/1 3/3/1
