# This file uses centimeters as units for non-parametric coordinates.

mtllib dome.mtl
g default
v 0.000000 0.000000 1.000000
v 1.000000 0.000000 0.000000
v 0.000000 1.000000 0.000000
v -1.000000 0.000000 0.000000
v 0.000000 0.000000 -1.000000
v 0.986394 0.164399 0.000000
v 0.928477 0.371391 0.000000
v 0.800000 0.600000 0.000000
v 0.600000 0.800000 0.000000
v 0.371391 0.928477 0.000000
v 0.164399 0.986394 0.000000
v 0.986394 0.000000 0.164399
v 0.928477 0.000000 0.371391
v 0.800000 0.000000 0.600000
v 0.600000 0.000000 0.800000
v 0.371391 0.000000 0.928477
v 0.164399 0.000000 0.986394
v 0.000000 0.986394 0.164399
v 0.000000 0.928477 0.371391
v 0.000000 0.800000 0.600000
v 0.000000 0.600000 0.800000
v 0.000000 0.371391 0.928477
v 0.000000 0.164399 0.986394
v 0.962251 0.192450 0.192450
v 0.872872 0.436436 0.218218
v 0.872872 0.218218 0.436436
v 0.688247 0.688247 0.229416
v 0.727607 0.485071 0.485071
v 0.688247 0.229416 0.688247
v 0.436436 0.872872 0.218218
v 0.485071 0.727607 0.485071
v 0.485071 0.485071 0.727607
v 0.436436 0.218218 0.872872
v 0.192450 0.962251 0.192450
v 0.218218 0.872872 0.436436
v 0.229416 0.688247 0.688247
v 0.218218 0.436436 0.872871
v 0.192450 0.192450 0.962251
v -0.164399 0.986394 0.000000
v -0.371391 0.928477 0.000000
v -0.600000 0.800000 0.000000
v -0.800000 0.600000 0.000000
v -0.928477 0.371391 0.000000
v -0.986394 0.164399 0.000000
v -0.986394 0.000000 0.164399
v -0.928477 0.000000 0.371391
v -0.800000 0.000000 0.600000
v -0.600000 0.000000 0.800000
v -0.371391 0.000000 0.928477
v -0.164399 0.000000 0.986394
v -0.192450 0.962251 0.192450
v -0.436436 0.872872 0.218218
v -0.218218 0.872872 0.436436
v -0.688247 0.688247 0.229416
v -0.485071 0.727607 0.485071
v -0.229416 0.688247 0.688247
v -0.872872 0.436436 0.218218
v -0.727607 0.485071 0.485071
v -0.485071 0.485071 0.727607
v -0.218218 0.436436 0.872872
v -0.962251 0.192450 0.192450
v -0.872872 0.218218 0.436436
v -0.688247 0.229416 0.688247
v -0.436436 0.218218 0.872871
v -0.192450 0.192450 0.962251
v 0.000000 0.164399 -0.986394
v 0.000000 0.371391 -0.928477
v 0.000000 0.600000 -0.800000
v 0.000000 0.800000 -0.600000
v 0.000000 0.928477 -0.371391
v 0.000000 0.986394 -0.164399
v 0.164399 0.000000 -0.986394
v 0.371391 0.000000 -0.928477
v 0.600000 0.000000 -0.800000
v 0.800000 0.000000 -0.600000
v 0.928477 0.000000 -0.371391
v 0.986394 0.000000 -0.164399
v 0.192450 0.192450 -0.962251
v 0.218218 0.436436 -0.872872
v 0.436436 0.218218 -0.872872
v 0.229416 0.688247 -0.688247
v 0.485071 0.485071 -0.727607
v 0.688247 0.229416 -0.688247
v 0.218218 0.872872 -0.436436
v 0.485071 0.727607 -0.485071
v 0.727607 0.485071 -0.485071
v 0.872872 0.218218 -0.436436
v 0.192450 0.962251 -0.192450
v 0.436436 0.872872 -0.218218
v 0.688247 0.688247 -0.229416
v 0.872871 0.436436 -0.218218
v 0.962251 0.192450 -0.192450
v -0.164399 0.000000 -0.986394
v -0.371391 0.000000 -0.928477
v -0.600000 0.000000 -0.800000
v -0.800000 0.000000 -0.600000
v -0.928477 0.000000 -0.371391
v -0.986394 0.000000 -0.164399
v -0.192450 0.192450 -0.962251
v -0.436436 0.218218 -0.872872
v -0.218218 0.436436 -0.872872
v -0.688247 0.229416 -0.688247
v -0.485071 0.485071 -0.727607
v -0.229416 0.688247 -0.688247
v -0.872872 0.218218 -0.436436
v -0.727607 0.485071 -0.485071
v -0.485071 0.727607 -0.485071
v -0.218218 0.872872 -0.436436
v -0.962251 0.192450 -0.192450
v -0.872872 0.436436 -0.218218
v -0.688247 0.688247 -0.229416
v -0.436436 0.872871 -0.218218
v -0.192450 0.962251 -0.192450
vt 0.500000 0.500000
vt 0.750000 0.500000
vt 0.500000 1.000000
vt 0.250000 0.500000
vt 1.000000 0.500000
vt 0.750000 0.552568
vt 0.750000 0.621119
vt 0.750000 0.704833
vt 0.750000 0.795167
vt 0.750000 0.878881
vt 0.750000 0.947432
vt 0.723716 0.500000
vt 0.689441 0.500000
vt 0.647584 0.500000
vt 0.602416 0.500000
vt 0.560559 0.500000
vt 0.526284 0.500000
vt 0.500000 0.947432
vt 0.500000 0.878881
vt 0.500000 0.795167
vt 0.500000 0.704833
vt 0.500000 0.621119
vt 0.500000 0.552568
vt 0.718584 0.561643
vt 0.711010 0.643759
vt 0.676208 0.570024
vt 0.698792 0.741620
vt 0.656416 0.661206
vt 0.625000 0.573682
vt 0.676208 0.837745
vt 0.625000 0.759368
vt 0.593584 0.661206
vt 0.573792 0.570024
vt 0.625000 0.912260
vt 0.573792 0.837745
vt 0.551208 0.741620
vt 0.538990 0.643759
vt 0.531416 0.561643
vt 0.250000 0.947432
vt 0.250000 0.878881
vt 0.250000 0.795167
vt 0.250000 0.704833
vt 0.250000 0.621119
vt 0.250000 0.552568
vt 0.276284 0.500000
vt 0.310559 0.500000
vt 0.352416 0.500000
vt 0.397584 0.500000
vt 0.439441 0.500000
vt 0.473716 0.500000
vt 0.375000 0.912260
vt 0.323792 0.837745
vt 0.426208 0.837745
vt 0.301208 0.741620
vt 0.375000 0.759368
vt 0.448792 0.741620
vt 0.288990 0.643759
vt 0.343583 0.661206
vt 0.406416 0.661206
vt 0.461010 0.643759
vt 0.281416 0.561643
vt 0.323792 0.570024
vt 0.375000 0.573682
vt 0.426208 0.570024
vt 0.468584 0.561643
vt 1.000000 0.552568
vt 1.000000 0.621119
vt 1.000000 0.704833
vt 1.000000 0.795167
vt 1.000000 0.878881
vt 1.000000 0.947432
vt 0.973716 0.500000
vt 0.939441 0.500000
vt 0.897584 0.500000
vt 0.852416 0.500000
vt 0.810559 0.500000
vt 0.776284 0.500000
vt 0.968584 0.561643
vt 0.961010 0.643759
vt 0.926208 0.570024
vt 0.948792 0.741620
vt 0.906416 0.661206
vt 0.875000 0.573682
vt 0.926208 0.837745
vt 0.875000 0.759368
vt 0.843584 0.661206
vt 0.823792 0.570024
vt 0.875000 0.912260
vt 0.823792 0.837745
vt 0.801208 0.741620
vt 0.788990 0.643759
vt 0.781416 0.561643
vt 0.026284 0.500000
vt 0.060559 0.500000
vt 0.102416 0.500000
vt 0.147584 0.500000
vt 0.189441 0.500000
vt 0.223716 0.500000
vt 0.031416 0.561643
vt 0.073792 0.570024
vt 0.038990 0.643759
vt 0.125000 0.573682
vt 0.093584 0.661206
vt 0.051208 0.741620
vt 0.176208 0.570024
vt 0.156416 0.661206
vt 0.125000 0.759367
vt 0.073792 0.837745
vt 0.218584 0.561643
vt 0.211010 0.643759
vt 0.198792 0.741620
vt 0.176208 0.837745
vt 0.125000 0.912260
vt 1.026284 0.500000
vt 1.031416 0.561643
vt 1.038990 0.643759
vt 1.051208 0.741620
vt 1.073792 0.837745
vt 1.125000 0.912260
vt 1.250000 0.947432
vn 0.996593 0.082481 0.000000
vn 0.982445 0.186552 0.000000
vn 0.978466 0.089913 0.185796
vn 0.921878 0.387480 -0.000000
vn 0.950392 0.219948 0.219948
vn 0.917123 0.101434 0.385482
vn 0.796161 0.605085 -0.000000
vn 0.856104 0.452282 0.250054
vn 0.856104 0.250054 0.452282
vn 0.790997 0.113705 0.601161
vn 0.605085 0.796161 -0.000000
vn 0.682174 0.682174 0.263204
vn 0.713319 0.495569 0.495569
vn 0.682174 0.263204 0.682174
vn 0.601161 0.113705 0.790997
vn 0.387480 0.921878 -0.000000
vn 0.452282 0.856104 0.250054
vn 0.495569 0.713319 0.495569
vn 0.495568 0.495569 0.713319
vn 0.452282 0.250054 0.856104
vn 0.385481 0.101433 0.917123
vn 0.186552 0.982445 0.000000
vn 0.219948 0.950392 0.219948
vn 0.250054 0.856104 0.452282
vn 0.263204 0.682174 0.682174
vn 0.250054 0.452282 0.856104
vn 0.219948 0.219948 0.950392
vn 0.185796 0.089913 0.978466
vn -0.000000 1.000000 0.000000
vn -0.000000 0.982445 0.186552
vn -0.000000 0.921878 0.387480
vn 0.000000 0.796161 0.605085
vn 0.000000 0.605085 0.796161
vn 0.000000 0.387480 0.921878
vn -0.000000 0.186552 0.982445
vn 0.000000 0.082481 0.996593
vn -0.186552 0.982445 -0.000000
vn -0.387480 0.921878 -0.000000
vn -0.219948 0.950392 0.219948
vn -0.605085 0.796161 -0.000000
vn -0.452282 0.856104 0.250054
vn -0.250054 0.856104 0.452282
vn -0.796161 0.605085 -0.000000
vn -0.682174 0.682174 0.263204
vn -0.495569 0.713319 0.495569
vn -0.263204 0.682174 0.682174
vn -0.921878 0.387480 -0.000000
vn -0.856104 0.452282 0.250054
vn -0.713319 0.495569 0.495569
vn -0.495569 0.495569 0.713319
vn -0.250054 0.452282 0.856104
vn -0.982445 0.186552 0.000000
vn -0.950392 0.219948 0.219948
vn -0.856104 0.250054 0.452282
vn -0.682174 0.263204 0.682174
vn -0.452282 0.250054 0.856104
vn -0.219948 0.219948 0.950392
vn -0.996593 0.082481 0.000000
vn -0.978466 0.089913 0.185796
vn -0.917123 0.101434 0.385482
vn -0.790997 0.113705 0.601161
vn -0.601161 0.113705 0.790998
vn -0.385482 0.101433 0.917123
vn -0.185796 0.089913 0.978466
vn 0.000000 0.082481 -0.996593
vn -0.000000 0.186552 -0.982445
vn 0.185796 0.089913 -0.978466
vn -0.000000 0.387480 -0.921878
vn 0.219948 0.219948 -0.950392
vn 0.385482 0.101434 -0.917123
vn 0.000000 0.605085 -0.796161
vn 0.250054 0.452282 -0.856104
vn 0.452282 0.250054 -0.856104
vn 0.601161 0.113705 -0.790998
vn -0.000000 0.796161 -0.605085
vn 0.263204 0.682174 -0.682174
vn 0.495569 0.495569 -0.713319
vn 0.682174 0.263204 -0.682174
vn 0.790998 0.113705 -0.601161
vn -0.000000 0.921878 -0.387480
vn 0.250054 0.856104 -0.452282
vn 0.495569 0.713319 -0.495569
vn 0.713319 0.495569 -0.495569
vn 0.856104 0.250054 -0.452282
vn 0.917123 0.101433 -0.385481
vn 0.000000 0.982445 -0.186552
vn 0.219948 0.950392 -0.219948
vn 0.452282 0.856104 -0.250054
vn 0.682174 0.682174 -0.263204
vn 0.856104 0.452282 -0.250054
vn 0.950392 0.219948 -0.219948
vn 0.978466 0.089913 -0.185796
vn -0.185796 0.089913 -0.978466
vn -0.385481 0.101434 -0.917123
vn -0.219948 0.219948 -0.950392
vn -0.601161 0.113705 -0.790998
vn -0.452282 0.250054 -0.856104
vn -0.250054 0.452282 -0.856104
vn -0.790998 0.113705 -0.601161
vn -0.682174 0.263204 -0.682174
vn -0.495569 0.495569 -0.713319
vn -0.263204 0.682174 -0.682174
vn -0.917123 0.101433 -0.385481
vn -0.856104 0.250054 -0.452282
vn -0.713319 0.495569 -0.495569
vn -0.495569 0.713319 -0.495568
vn -0.250054 0.856104 -0.452282
vn -0.978466 0.089913 -0.185796
vn -0.950392 0.219948 -0.219948
vn -0.856104 0.452282 -0.250054
vn -0.682174 0.682174 -0.263204
vn -0.452282 0.856104 -0.250054
vn -0.219948 0.950392 -0.219948
vn 0.000000 -1.000000 0.000000
vn 0.000000 -1.000000 0.000000
vn 0.000000 -1.000000 0.000000
vn 0.000000 -1.000000 0.000000
vn 0.000000 -1.000000 0.000000
vn 0.000000 -1.000000 0.000000
vn 0.000000 -1.000000 0.000000
vn 0.000000 -1.000000 0.000000
vn 0.000000 -1.000000 0.000000
vn 0.000000 -1.000000 0.000000
vn 0.000000 -1.000000 0.000000
vn 0.000000 -1.000000 0.000000
vn 0.000000 -1.000000 0.000000
vn 0.000000 -1.000000 0.000000
vn 0.000000 -1.000000 0.000000
vn 0.000000 -1.000000 0.000000
vn 0.000000 -1.000000 0.000000
vn 0.000000 -1.000000 0.000000
vn 0.000000 -1.000000 0.000000
vn 0.000000 -1.000000 0.000000
vn 0.000000 -1.000000 0.000000
vn 0.000000 -1.000000 0.000000
vn 0.000000 -1.000000 0.000000
vn 0.000000 -1.000000 0.000000
vn 0.000000 -1.000000 0.000000
vn 0.000000 -1.000000 0.000000
vn 0.000000 -1.000000 0.000000
vn 0.000000 -1.000000 0.000000
s 1
g pPlatonic1
usemtl initialShadingGroup
f 2/2/1 6/6/2 12/12/3
f 6/6/2 7/7/4 24/24/5
f 6/6/2 24/24/5 12/12/3
f 12/12/3 24/24/5 13/13/6
f 7/7/4 8/8/7 25/25/8
f 7/7/4 25/25/8 24/24/5
f 24/24/5 25/25/8 26/26/9
f 24/24/5 26/26/9 13/13/6
f 13/13/6 26/26/9 14/14/10
f 8/8/7 9/9/11 27/27/12
f 8/8/7 27/27/12 25/25/8
f 25/25/8 27/27/12 28/28/13
f 25/25/8 28/28/13 26/26/9
f 26/26/9 28/28/13 29/29/14
f 26/26/9 29/29/14 14/14/10
f 14/14/10 29/29/14 15/15/15
f 9/9/11 10/10/16 30/30/17
f 9/9/11 30/30/17 27/27/12
f 27/27/12 30/30/17 31/31/18
f 27/27/12 31/31/18 28/28/13
f 28/28/13 31/31/18 32/32/19
f 28/28/13 32/32/19 29/29/14
f 29/29/14 32/32/19 33/33/20
f 29/29/14 33/33/20 15/15/15
f 15/15/15 33/33/20 16/16/21
f 10/10/16 11/11/22 34/34/23
f 10/10/16 34/34/23 30/30/17
f 30/30/17 34/34/23 35/35/24
f 30/30/17 35/35/24 31/31/18
f 31/31/18 35/35/24 36/36/25
f 31/31/18 36/36/25 32/32/19
f 32/32/19 36/36/25 37/37/26
f 32/32/19 37/37/26 33/33/20
f 33/33/20 37/37/26 38/38/27
f 33/33/20 38/38/27 16/16/21
f 16/16/21 38/38/27 17/17/28
f 11/11/22 3/3/29 18/18/30
f 11/11/22 18/18/30 34/34/23
f 34/34/23 18/18/30 19/19/31
f 34/34/23 19/19/31 35/35/24
f 35/35/24 19/19/31 20/20/32
f 35/35/24 20/20/32 36/36/25
f 36/36/25 20/20/32 21/21/33
f 36/36/25 21/21/33 37/37/26
f 37/37/26 21/21/33 22/22/34
f 37/37/26 22/22/34 38/38/27
f 38/38/27 22/22/34 23/23/35
f 38/38/27 23/23/35 17/17/28
f 17/17/28 23/23/35 1/1/36
f 3/3/29 39/39/37 18/18/30
f 39/39/37 40/40/38 51/51/39
f 39/39/37 51/51/39 18/18/30
f 18/18/30 51/51/39 19/19/31
f 40/40/38 41/41/40 52/52/41
f 40/40/38 52/52/41 51/51/39
f 51/51/39 52/52/41 53/53/42
f 51/51/39 53/53/42 19/19/31
f 19/19/31 53/53/42 20/20/32
f 41/41/40 42/42/43 54/54/44
f 41/41/40 54/54/44 52/52/41
f 52/52/41 54/54/44 55/55/45
f 52/52/41 55/55/45 53/53/42
f 53/53/42 55/55/45 56/56/46
f 53/53/42 56/56/46 20/20/32
f 20/20/32 56/56/46 21/21/33
f 42/42/43 43/43/47 57/57/48
f 42/42/43 57/57/48 54/54/44
f 54/54/44 57/57/48 58/58/49
f 54/54/44 58/58/49 55/55/45
f 55/55/45 58/58/49 59/59/50
f 55/55/45 59/59/50 56/56/46
f 56/56/46 59/59/50 60/60/51
f 56/56/46 60/60/51 21/21/33
f 21/21/33 60/60/51 22/22/34
f 43/43/47 44/44/52 61/61/53
f 43/43/47 61/61/53 57/57/48
f 57/57/48 61/61/53 62/62/54
f 57/57/48 62/62/54 58/58/49
f 58/58/49 62/62/54 63/63/55
f 58/58/49 63/63/55 59/59/50
f 59/59/50 63/63/55 64/64/56
f 59/59/50 64/64/56 60/60/51
f 60/60/51 64/64/56 65/65/57
f 60/60/51 65/65/57 22/22/34
f 22/22/34 65/65/57 23/23/35
f 44/44/52 4/4/58 45/45/59
f 44/44/52 45/45/59 61/61/53
f 61/61/53 45/45/59 46/46/60
f 61/61/53 46/46/60 62/62/54
f 62/62/54 46/46/60 47/47/61
f 62/62/54 47/47/61 63/63/55
f 63/63/55 47/47/61 48/48/62
f 63/63/55 48/48/62 64/64/56
f 64/64/56 48/48/62 49/49/63
f 64/64/56 49/49/63 65/65/57
f 65/65/57 49/49/63 50/50/64
f 65/65/57 50/50/64 23/23/35
f 23/23/35 50/50/64 1/1/36
f 5/5/65 66/66/66 72/72/67
f 66/66/66 67/67/68 78/78/69
f 66/66/66 78/78/69 72/72/67
f 72/72/67 78/78/69 73/73/70
f 67/67/68 68/68/71 79/79/72
f 67/67/68 79/79/72 78/78/69
f 78/78/69 79/79/72 80/80/73
f 78/78/69 80/80/73 73/73/70
f 73/73/70 80/80/73 74/74/74
f 68/68/71 69/69/75 81/81/76
f 68/68/71 81/81/76 79/79/72
f 79/79/72 81/81/76 82/82/77
f 79/79/72 82/82/77 80/80/73
f 80/80/73 82/82/77 83/83/78
f 80/80/73 83/83/78 74/74/74
f 74/74/74 83/83/78 75/75/79
f 69/69/75 70/70/80 84/84/81
f 69/69/75 84/84/81 81/81/76
f 81/81/76 84/84/81 85/85/82
f 81/81/76 85/85/82 82/82/77
f 82/82/77 85/85/82 86/86/83
f 82/82/77 86/86/83 83/83/78
f 83/83/78 86/86/83 87/87/84
f 83/83/78 87/87/84 75/75/79
f 75/75/79 87/87/84 76/76/85
f 70/70/80 71/71/86 88/88/87
f 70/70/80 88/88/87 84/84/81
f 84/84/81 88/88/87 89/89/88
f 84/84/81 89/89/88 85/85/82
f 85/85/82 89/89/88 90/90/89
f 85/85/82 90/90/89 86/86/83
f 86/86/83 90/90/89 91/91/90
f 86/86/83 91/91/90 87/87/84
f 87/87/84 91/91/90 92/92/91
f 87/87/84 92/92/91 76/76/85
f 76/76/85 92/92/91 77/77/92
f 71/71/86 3/3/29 11/11/22
f 71/71/86 11/11/22 88/88/87
f 88/88/87 11/11/22 10/10/16
f 88/88/87 10/10/16 89/89/88
f 89/89/88 10/10/16 9/9/11
f 89/89/88 9/9/11 90/90/89
f 90/90/89 9/9/11 8/8/7
f 90/90/89 8/8/7 91/91/90
f 91/91/90 8/8/7 7/7/4
f 91/91/90 7/7/4 92/92/91
f 92/92/91 7/7/4 6/6/2
f 92/92/91 6/6/2 77/77/92
f 77/77/92 6/6/2 2/2/1
f 5/5/65 93/114/93 66/66/66
f 93/93/93 94/94/94 99/99/95
f 93/114/93 99/115/95 66/66/66
f 66/66/66 99/115/95 67/67/68
f 94/94/94 95/95/96 100/100/97
f 94/94/94 100/100/97 99/99/95
f 99/99/95 100/100/97 101/101/98
f 99/115/95 101/116/98 67/67/68
f 67/67/68 101/116/98 68/68/71
f 95/95/96 96/96/99 102/102/100
f 95/95/96 102/102/100 100/100/97
f 100/100/97 102/102/100 103/103/101
f 100/100/97 103/103/101 101/101/98
f 101/101/98 103/103/101 104/104/102
f 101/116/98 104/117/102 68/68/71
f 68/68/71 104/117/102 69/69/75
f 96/96/99 97/97/103 105/105/104
f 96/96/99 105/105/104 102/102/100
f 102/102/100 105/105/104 106/106/105
f 102/102/100 106/106/105 103/103/101
f 103/103/101 106/106/105 107/107/106
f 103/103/101 107/107/106 104/104/102
f 104/104/102 107/107/106 108/108/107
f 104/117/102 108/118/107 69/69/75
f 69/69/75 108/118/107 70/70/80
f 97/97/103 98/98/108 109/109/109
f 97/97/103 109/109/109 105/105/104
f 105/105/104 109/109/109 110/110/110
f 105/105/104 110/110/110 106/106/105
f 106/106/105 110/110/110 111/111/111
f 106/106/105 111/111/111 107/107/106
f 107/107/106 111/111/111 112/112/112
f 107/107/106 112/112/112 108/108/107
f 108/108/107 112/112/112 113/113/113
f 108/118/107 113/119/113 70/70/80
f 70/70/80 113/119/113 71/71/86
f 98/98/108 4/4/58 44/44/52
f 98/98/108 44/44/52 109/109/109
f 109/109/109 44/44/52 43/43/47
f 109/109/109 43/43/47 110/110/110
f 110/110/110 43/43/47 42/42/43
f 110/110/110 42/42/43 111/111/111
f 111/111/111 42/42/43 41/41/40
f 111/111/111 41/41/40 112/112/112
f 112/112/112 41/41/40 40/40/38
f 112/112/112 40/40/38 113/113/113
f 113/113/113 40/40/38 39/39/37
f 113/119/113 39/120/37 71/71/86
f 71/71/86 39/120/37 3/3/29
s 25
f 14/14/114 15/15/115 13/13/116
f 13/13/116 15/15/115 12/12/117
f 15/15/115 16/16/118 12/12/117
f 12/12/117 16/16/118 2/2/119
f 2/2/119 16/16/118 77/77/120
f 16/16/118 17/17/121 77/77/120
f 17/17/121 1/1/122 77/77/120
f 77/77/120 1/1/122 76/76/123
f 76/76/123 1/1/122 75/75/124
f 75/75/124 1/1/122 74/74/125
f 74/74/125 1/1/122 73/73/126
f 73/73/126 1/1/122 72/72/127
f 1/1/122 50/50/128 72/72/127
f 50/50/128 49/49/129 72/72/127
f 49/49/129 48/48/130 72/72/127
f 48/48/130 47/47/131 72/72/127
f 47/47/131 46/46/132 72/72/127
f 46/46/132 45/45/133 72/72/127
f 45/45/133 4/4/134 72/72/127
f 4/4/134 98/98/135 72/72/127
f 98/98/135 97/97/136 72/72/127
f 97/97/136 96/96/137 72/72/127
f 96/96/137 95/95/138 72/72/127
f 95/95/138 94/94/139 72/72/127
f 72/72/127 94/94/139 5/5/140
f 94/94/139 93/114/141 5/5/140
